<?xml version="1.0" standalone="no"?>
<!DOCTYPE svg PUBLIC "-//W3C//DTD SVG 20010904//EN"
 "http://www.w3.org/TR/2001/REC-SVG-20010904/DTD/svg10.dtd">
<svg version="1.0" xmlns="http://www.w3.org/2000/svg"
 width="512.000000pt" height="512.000000pt" viewBox="0 0 512.000000 512.000000"
 preserveAspectRatio="xMidYMid meet">

<g transform="translate(0.000000,512.000000) scale(0.100000,-0.100000)"
fill="#000000" stroke="none">
<path d="M2432 4831 c-76 -28 -128 -71 -307 -250 -142 -143 -163 -161 -193
-161 -18 0 -135 16 -260 36 -244 38 -282 39 -378 3 -58 -22 -150 -98 -183
-152 -33 -54 -50 -123 -86 -353 -19 -121 -37 -228 -41 -237 -3 -9 -106 -67
-227 -129 -191 -97 -230 -121 -283 -173 -69 -69 -103 -141 -111 -241 -8 -89
14 -150 140 -396 l112 -218 -112 -217 c-126 -247 -148 -308 -140 -397 8 -100
42 -172 111 -241 53 -52 92 -76 283 -173 121 -62 224 -120 227 -129 4 -9 22
-116 41 -237 36 -230 53 -299 86 -353 33 -54 125 -130 183 -152 96 -36 134
-35 378 3 125 20 241 36 259 36 29 0 55 -22 218 -183 232 -229 255 -242 411
-242 156 0 179 13 411 242 163 161 189 183 218 183 18 0 134 -16 259 -36 244
-38 282 -39 378 -3 58 22 150 98 183 152 33 54 50 123 86 353 19 121 37 228
41 238 3 9 106 67 228 128 193 98 229 119 282 172 69 70 103 142 111 242 8 89
-14 150 -140 397 l-112 217 112 218 c61 119 119 244 128 276 35 121 0 257 -91
355 -49 53 -76 70 -283 175 -126 64 -232 123 -235 133 -4 9 -22 116 -41 237
-36 230 -53 299 -86 353 -33 54 -125 130 -183 152 -96 36 -134 35 -378 -3
-125 -20 -241 -36 -259 -36 -29 0 -55 22 -218 183 -223 220 -254 239 -396 244
-71 3 -101 -1 -143 -16z m337 -484 c277 -272 292 -277 695 -213 207 34 230 35
251 22 27 -18 25 -7 71 -296 57 -358 70 -375 412 -549 168 -85 226 -119 235
-138 10 -22 -1 -49 -105 -258 -178 -355 -178 -355 0 -710 104 -209 115 -236
105 -258 -9 -19 -67 -53 -235 -138 -342 -174 -355 -191 -412 -549 -46 -289
-44 -278 -71 -296 -21 -13 -44 -12 -251 22 -404 64 -418 60 -695 -213 -134
-132 -192 -183 -209 -183 -17 0 -75 51 -209 183 -277 273 -290 277 -695 213
-207 -34 -230 -35 -251 -22 -27 18 -25 7 -71 296 -57 358 -70 375 -412 549
-168 85 -226 119 -235 138 -10 22 1 48 105 258 178 355 178 355 0 710 -104
210 -115 236 -105 258 9 19 67 53 235 138 342 174 355 191 412 549 46 289 44
278 71 296 21 13 44 12 251 -22 404 -64 419 -59 694 213 135 133 191 183 209
183 18 0 71 -47 210 -183z"/>
<path d="M3255 3209 c-19 -5 -182 -161 -487 -466 l-458 -458 -207 207 c-115
114 -221 212 -236 218 -69 25 -154 -6 -191 -69 -24 -42 -26 -114 -3 -156 8
-16 136 -150 284 -297 225 -224 275 -268 311 -279 91 -26 75 -40 645 529 285
284 526 531 534 547 23 42 20 116 -6 159 -23 37 -92 77 -132 75 -13 0 -37 -5
-54 -10z"/>
</g>
</svg>
