<?xml version="1.0" standalone="no"?>
<!DOCTYPE svg PUBLIC "-//W3C//DTD SVG 20010904//EN"
 "http://www.w3.org/TR/2001/REC-SVG-20010904/DTD/svg10.dtd">
<svg version="1.0" xmlns="http://www.w3.org/2000/svg"
 width="512.000000pt" height="512.000000pt" viewBox="0 0 512.000000 512.000000"
 preserveAspectRatio="xMidYMid meet">

<g transform="translate(0.000000,512.000000) scale(0.100000,-0.100000)"
fill="#000000" stroke="none">
<path d="M1260 4855 c-200 -37 -418 -129 -585 -246 -115 -82 -283 -249 -365
-364 -253 -353 -360 -838 -285 -1291 152 -924 929 -1821 2225 -2567 214 -123
244 -137 310 -137 66 0 93 12 282 121 296 171 657 410 878 583 345 269 668
594 886 892 539 738 659 1536 329 2189 -80 159 -166 277 -295 405 -130 129
-248 214 -405 290 -203 99 -380 140 -605 140 -374 0 -705 -144 -986 -428 l-85
-87 -57 60 c-226 237 -492 385 -791 440 -103 19 -346 19 -451 0z m337 -456
c278 -38 530 -213 730 -509 84 -124 136 -160 233 -160 97 0 149 36 233 160
166 247 369 412 589 479 215 65 432 48 642 -52 261 -125 468 -365 564 -652 47
-144 57 -213 57 -400 -1 -181 -13 -270 -61 -440 -151 -535 -590 -1091 -1244
-1577 -236 -175 -741 -498 -780 -498 -21 0 -339 193 -521 315 -311 210 -526
383 -758 609 -447 437 -696 860 -788 1331 -22 114 -24 398 -4 500 78 398 340
716 699 852 127 47 266 62 409 42z"/>
</g>
</svg>
