<?xml version="1.0" standalone="no"?>
<!DOCTYPE svg PUBLIC "-//W3C//DTD SVG 20010904//EN"
 "http://www.w3.org/TR/2001/REC-SVG-20010904/DTD/svg10.dtd">
<svg version="1.0" xmlns="http://www.w3.org/2000/svg"
 width="512.000000pt" height="512.000000pt" viewBox="0 0 512.000000 512.000000"
 preserveAspectRatio="xMidYMid meet">

<g transform="translate(0.000000,512.000000) scale(0.100000,-0.100000)"
fill="#000000" stroke="none">
<path d="M685 4903 c-218 -30 -387 -176 -452 -388 -16 -52 -18 -97 -18 -355 0
-258 2 -303 18 -355 57 -185 187 -315 372 -372 55 -17 106 -18 675 -18 569 0
620 1 675 18 186 57 315 186 372 372 16 52 18 97 18 355 0 258 -2 303 -18 355
-44 142 -138 261 -257 324 -124 66 -104 65 -760 67 -327 1 -608 0 -625 -3z"/>
<path d="M3245 4903 c-218 -30 -387 -176 -452 -388 -17 -57 -18 -119 -18
-1110 l0 -1050 26 -71 c68 -187 225 -322 409 -354 44 -8 257 -10 670 -8 598 3
606 4 664 26 166 62 275 172 335 336 l26 71 0 1050 c0 991 -1 1053 -18 1110
-44 142 -138 261 -257 324 -124 66 -104 65 -760 67 -327 1 -608 0 -625 -3z"/>
<path d="M635 3188 c-27 -5 -81 -24 -120 -43 -129 -63 -222 -167 -274 -309
l-26 -71 0 -1050 c0 -991 1 -1053 18 -1110 57 -185 187 -315 372 -372 55 -17
106 -18 675 -18 569 0 620 1 675 18 186 57 315 186 372 372 17 57 18 119 18
1110 l0 1050 -26 71 c-68 185 -222 320 -403 353 -75 14 -1209 13 -1281 -1z"/>
<path d="M3245 1703 c-218 -30 -387 -176 -452 -388 -16 -52 -18 -97 -18 -355
0 -258 2 -303 18 -355 57 -185 187 -315 372 -372 55 -17 106 -18 675 -18 569
0 620 1 675 18 186 57 315 186 372 372 16 52 18 97 18 355 0 258 -2 303 -18
355 -44 142 -138 261 -257 324 -124 66 -104 65 -760 67 -327 1 -608 0 -625 -3z"/>
</g>
</svg>
