<?xml version="1.0" standalone="no"?>
<!DOCTYPE svg PUBLIC "-//W3C//DTD SVG 20010904//EN"
 "http://www.w3.org/TR/2001/REC-SVG-20010904/DTD/svg10.dtd">
<svg version="1.0" xmlns="http://www.w3.org/2000/svg"
 width="512.000000pt" height="512.000000pt" viewBox="0 0 512.000000 512.000000"
 preserveAspectRatio="xMidYMid meet">

<g transform="translate(0.000000,512.000000) scale(0.100000,-0.100000)"
fill="#000000" stroke="none">
<path d="M685 4903 c-216 -30 -387 -177 -452 -388 -16 -52 -18 -97 -18 -355 0
-258 2 -303 18 -355 57 -184 188 -315 372 -372 55 -17 106 -18 675 -18 569 0
620 1 675 18 184 57 315 188 372 372 16 52 18 97 18 355 0 258 -2 303 -18 355
-56 181 -184 311 -367 371 -50 17 -105 18 -650 20 -327 1 -608 0 -625 -3z
m1235 -230 c65 -21 142 -89 178 -157 l27 -51 0 -305 c0 -301 0 -306 -24 -350
-32 -61 -86 -116 -146 -148 l-50 -27 -625 0 -625 0 -51 27 c-68 36 -136 113
-157 178 -14 44 -17 97 -17 324 0 326 3 339 95 431 98 98 59 93 746 94 533 1
602 -1 649 -16z"/>
<path d="M3245 4903 c-216 -30 -387 -177 -452 -388 -17 -57 -18 -119 -18
-1100 0 -1128 -2 -1080 56 -1200 59 -119 162 -211 299 -265 l65 -25 640 0 640
0 68 23 c134 47 246 144 306 267 58 120 56 72 56 1200 0 981 -1 1043 -18 1100
-56 181 -184 311 -367 371 -50 17 -105 18 -650 20 -327 1 -608 0 -625 -3z
m1235 -230 c65 -21 142 -89 178 -157 l27 -51 0 -1050 0 -1050 -24 -49 c-33
-66 -91 -122 -160 -155 l-56 -26 -605 0 -605 0 -57 27 c-75 35 -141 104 -167
174 -21 54 -21 69 -21 1077 0 1176 -8 1079 95 1182 98 98 59 93 746 94 533 1
602 -1 649 -16z"/>
<path d="M645 3190 c-164 -34 -300 -138 -374 -286 -58 -118 -56 -72 -56 -1199
0 -981 1 -1043 18 -1100 57 -184 188 -315 372 -372 55 -17 106 -18 675 -18
569 0 620 1 675 18 184 57 315 188 372 372 17 57 18 119 18 1100 0 1128 2
1080 -56 1200 -59 120 -161 211 -295 263 l-69 27 -620 2 c-341 1 -638 -2 -660
-7z m1297 -232 c75 -35 141 -104 168 -174 20 -55 20 -64 18 -1092 l-3 -1037
-27 -50 c-32 -60 -87 -114 -148 -146 l-45 -24 -625 0 -625 0 -51 27 c-28 15
-71 49 -96 76 -83 93 -78 22 -78 1173 0 975 1 1021 19 1069 37 98 116 168 220
197 35 9 188 12 631 10 l585 -2 57 -27z"/>
<path d="M3245 1703 c-216 -30 -387 -177 -452 -388 -16 -52 -18 -97 -18 -355
0 -258 2 -303 18 -355 57 -184 188 -315 372 -372 55 -17 106 -18 675 -18 569
0 620 1 675 18 184 57 315 188 372 372 16 52 18 97 18 355 0 258 -2 303 -18
355 -56 181 -184 311 -367 371 -50 17 -105 18 -650 20 -327 1 -608 0 -625 -3z
m1235 -230 c65 -21 142 -89 178 -157 l27 -51 0 -305 c0 -301 0 -306 -24 -350
-32 -61 -86 -116 -146 -148 l-50 -27 -625 0 -625 0 -51 27 c-68 36 -136 113
-157 178 -14 44 -17 97 -17 324 0 326 3 339 95 431 98 98 59 93 746 94 533 1
602 -1 649 -16z"/>
</g>
</svg>
