<?xml version="1.0" standalone="no"?>
<!DOCTYPE svg PUBLIC "-//W3C//DTD SVG 20010904//EN"
 "http://www.w3.org/TR/2001/REC-SVG-20010904/DTD/svg10.dtd">
<svg version="1.0" xmlns="http://www.w3.org/2000/svg"
 width="512.000000pt" height="512.000000pt" viewBox="0 0 512.000000 512.000000"
 preserveAspectRatio="xMidYMid meet">

<g transform="translate(0.000000,512.000000) scale(0.100000,-0.100000)"
fill="#000000" stroke="none">
<path d="M1275 4894 c-322 -31 -568 -147 -795 -374 -188 -187 -326 -425 -403
-696 -181 -635 -32 -1322 426 -1969 395 -558 1002 -1066 1829 -1531 177 -100
212 -112 268 -95 73 22 435 232 700 407 1342 885 1992 1997 1779 3043 -104
509 -421 936 -829 1114 -165 73 -309 101 -515 101 -410 -1 -781 -158 -1102
-467 l-73 -70 -72 70 c-252 242 -537 392 -855 448 -90 16 -286 26 -358 19z"/>
</g>
</svg>
