<?xml version="1.0" standalone="no"?>
<!DOCTYPE svg PUBLIC "-//W3C//DTD SVG 20010904//EN"
 "http://www.w3.org/TR/2001/REC-SVG-20010904/DTD/svg10.dtd">
<svg version="1.0" xmlns="http://www.w3.org/2000/svg"
 width="512.000000pt" height="512.000000pt" viewBox="0 0 512.000000 512.000000"
 preserveAspectRatio="xMidYMid meet">

<g transform="translate(0.000000,512.000000) scale(0.100000,-0.100000)"
fill="#000000" stroke="none">
<path d="M393 5110 c-12 -5 -30 -21 -40 -37 -17 -26 -18 -133 -21 -2478 -2
-1347 0 -2469 3 -2493 4 -23 17 -55 30 -70 l23 -27 1812 -3 c1748 -2 1814 -2
1905 17 266 54 493 236 607 488 92 203 92 483 0 686 -111 244 -341 433 -590
485 l-82 17 0 1655 c0 1072 -4 1668 -10 1691 -6 20 -20 45 -31 55 -20 18 -47
19 -716 19 l-695 0 -24 -28 c-33 -38 -33 -96 0 -134 l24 -28 621 -3 621 -2 0
-1615 c0 -1508 -1 -1615 -17 -1615 -40 0 -154 -35 -231 -71 -197 -91 -342
-240 -429 -439 l-32 -75 -1117 -5 -1116 -5 -23 -27 c-32 -38 -37 -83 -33 -304
3 -207 10 -234 64 -254 16 -6 457 -10 1143 -10 l1118 0 45 -77 c25 -43 76
-111 113 -150 l67 -73 -1421 0 -1421 0 0 2360 0 2360 621 2 621 3 24 28 c33
38 33 96 0 134 l-24 28 -684 2 c-383 1 -693 -2 -705 -7z m3674 -3626 c202 -41
367 -172 454 -359 46 -100 59 -161 59 -278 0 -113 -18 -187 -70 -292 -74 -151
-211 -268 -373 -321 -114 -38 -276 -40 -387 -6 -173 54 -315 174 -393 334 -54
110 -67 167 -67 288 0 115 13 176 59 275 128 274 421 421 718 359z m-977 -668
c0 -46 3 -91 6 -100 6 -15 -89 -16 -1025 -16 l-1031 0 0 100 0 100 1025 0
1025 0 0 -84z"/>
<path d="M4125 1133 c-32 -8 -50 -28 -152 -171 l-95 -134 -47 46 c-41 40 -52
46 -89 46 -72 0 -121 -70 -91 -130 8 -16 50 -69 94 -119 95 -109 132 -125 196
-86 23 14 298 402 305 431 16 64 -54 133 -121 117z"/>
<path d="M2144 5111 c-56 -24 -72 -109 -30 -158 20 -23 32 -28 71 -28 60 0 95
35 95 95 0 70 -72 118 -136 91z"/>
<path d="M893 4610 c-12 -5 -30 -21 -40 -37 -17 -25 -18 -66 -18 -663 0 -596
1 -638 18 -663 10 -16 29 -32 43 -37 34 -13 1264 -13 1298 0 14 5 33 21 43 37
17 25 18 67 18 663 0 596 -1 638 -18 663 -10 16 -29 32 -43 37 -32 13 -1271
12 -1301 0z m1156 -682 c0 -417 -2 -488 -13 -458 -41 109 -110 201 -206 272
-28 21 -33 28 -23 40 7 8 20 42 28 76 48 188 -93 366 -290 366 -197 0 -338
-178 -290 -366 8 -34 21 -68 28 -76 10 -12 5 -19 -23 -40 -96 -71 -165 -163
-206 -272 -11 -30 -13 41 -13 458 l-1 492 505 0 505 0 -1 -492z m-438 76 c69
-62 26 -174 -67 -174 -46 0 -87 31 -98 76 -9 33 21 95 54 112 31 16 86 9 111
-14z m65 -409 c62 -28 122 -85 152 -145 l22 -45 -149 -3 c-83 -1 -220 -1 -305
0 l-156 3 22 45 c76 152 257 216 414 145z"/>
<path d="M2486 4184 c-55 -55 -23 -152 55 -168 18 -3 222 -6 454 -6 232 0 436
3 454 6 78 16 110 113 55 168 l-27 26 -482 0 -482 0 -27 -26z"/>
<path d="M2486 3774 c-55 -55 -23 -152 55 -168 18 -3 222 -6 454 -6 232 0 436
3 454 6 78 16 110 113 55 168 l-27 26 -482 0 -482 0 -27 -26z"/>
<path d="M894 2890 c-56 -23 -72 -108 -30 -157 l24 -28 1297 0 1297 0 24 28
c33 38 33 96 0 134 l-24 28 -1284 2 c-710 1 -1293 -2 -1304 -7z"/>
<path d="M894 2440 c-56 -23 -72 -108 -30 -157 l24 -28 267 0 267 0 24 28 c33
38 33 96 0 134 l-24 28 -254 2 c-139 1 -263 -2 -274 -7z"/>
<path d="M2034 2440 c-50 -20 -71 -101 -39 -146 30 -44 35 -45 778 -42 l709 3
24 28 c33 38 33 96 0 134 l-24 28 -714 2 c-392 1 -723 -2 -734 -7z"/>
<path d="M894 1990 c-56 -23 -72 -108 -30 -157 l24 -28 1297 0 1297 0 24 28
c33 38 33 96 0 134 l-24 28 -1284 2 c-710 1 -1293 -2 -1304 -7z"/>
<path d="M930 1450 l0 -100 680 0 680 0 0 100 0 100 -680 0 -680 0 0 -100z"/>
<path d="M2628 1521 c-27 -24 -33 -36 -33 -71 0 -35 6 -47 33 -71 l32 -29 166
0 166 0 34 34 c25 25 34 43 34 66 0 23 -10 41 -34 66 l-34 34 -166 0 -166 0
-32 -29z"/>
</g>
</svg>
