<?xml version="1.0" standalone="no"?>
<!DOCTYPE svg PUBLIC "-//W3C//DTD SVG 20010904//EN"
 "http://www.w3.org/TR/2001/REC-SVG-20010904/DTD/svg10.dtd">
<svg version="1.0" xmlns="http://www.w3.org/2000/svg"
 width="512.000000pt" height="512.000000pt" viewBox="0 0 512.000000 512.000000"
 preserveAspectRatio="xMidYMid meet">

<g transform="translate(0.000000,512.000000) scale(0.100000,-0.100000)"
fill="#000000" stroke="none">
<path d="M1068 4317 c-515 -298 -945 -551 -957 -561 l-21 -19 0 -1107 c0
-1041 1 -1109 18 -1128 23 -28 1905 -1112 1929 -1112 10 0 244 129 518 288
l500 287 5 -245 c5 -242 5 -246 32 -296 30 -56 77 -102 141 -136 l42 -23 751
-3 c735 -2 753 -2 806 18 74 27 131 79 165 148 l28 57 0 1085 0 1085 -21 46
c-28 60 -93 125 -153 152 -40 19 -68 22 -207 25 l-161 4 -15 32 c-24 49 -67
95 -112 119 -37 19 -59 22 -208 25 l-168 4 0 337 c0 337 0 338 -22 358 -13 12
-444 265 -960 562 -665 384 -944 541 -965 540 -18 0 -356 -190 -965 -542z
m1358 171 c302 -174 382 -224 372 -233 -7 -7 -396 -233 -865 -503 l-852 -492
-386 223 c-212 122 -385 224 -385 227 0 6 1710 998 1723 999 4 1 181 -99 393
-221z m940 -542 c392 -227 405 -235 382 -249 -13 -8 -403 -234 -867 -502 -644
-372 -848 -485 -860 -478 -9 5 -190 110 -404 233 -213 123 -387 226 -387 230
0 4 1719 1000 1727 1000 1 0 185 -105 409 -234z m-1983 -1021 l587 -338 0
-1003 0 -1003 -172 100 c-95 55 -487 280 -870 501 l-698 402 0 1003 0 1002
283 -163 c155 -89 546 -315 870 -501z m2457 401 l0 -264 -37 -7 c-79 -15 -153
-72 -182 -142 l-13 -31 -161 -4 c-154 -3 -165 -4 -219 -31 -64 -32 -111 -80
-142 -146 -21 -45 -21 -60 -26 -810 l-5 -763 -285 -165 c-157 -91 -369 -214
-472 -274 l-188 -108 0 1003 0 1003 863 500 c474 276 863 502 865 502 1 1 2
-118 2 -263z m476 -440 c26 -26 34 -42 34 -71 0 -29 -8 -45 -34 -71 l-34 -34
-237 0 -237 0 -34 34 c-26 26 -34 42 -34 71 0 29 8 45 34 71 l34 34 237 0 237
0 34 -34z m-690 -181 c22 -47 93 -109 142 -123 26 -8 125 -12 283 -12 224 0
248 2 289 21 56 25 96 62 121 112 l20 38 153 -3 c148 -3 154 -4 188 -30 73
-56 69 24 66 -1152 -3 -1047 -3 -1055 -24 -1082 -11 -15 -33 -37 -48 -48 -27
-21 -36 -21 -771 -21 -735 0 -744 0 -771 21 -15 11 -37 33 -48 48 -21 27 -21
35 -24 1069 -1 573 0 1056 3 1074 7 40 49 91 90 109 20 9 77 13 172 14 l142 0
17 -35z"/>
<path d="M3392 2317 c-21 -22 -22 -32 -22 -213 0 -186 1 -191 23 -212 32 -31
137 -32 167 -2 37 37 13 120 -35 120 -12 0 -15 17 -15 95 l0 95 95 0 c87 0 96
-2 119 -25 32 -32 60 -32 91 0 19 18 25 35 25 70 0 35 -6 52 -25 70 -24 25
-26 25 -213 25 -184 0 -189 -1 -210 -23z"/>
<path d="M3835 2160 l-109 -109 -43 39 c-53 49 -91 53 -123 13 -31 -40 -19
-68 64 -150 105 -104 98 -106 278 75 118 118 148 153 148 175 0 37 -33 67 -73
67 -28 0 -47 -15 -142 -110z"/>
<path d="M4162 2147 c-28 -30 -28 -68 1 -95 23 -21 31 -22 266 -22 l242 0 24
25 c14 13 25 34 25 45 0 12 -11 32 -25 45 l-24 25 -244 0 c-242 0 -244 0 -265
-23z"/>
<path d="M3392 1677 c-21 -22 -22 -32 -22 -213 0 -252 -18 -234 236 -234 252
0 234 -18 234 236 0 252 18 234 -236 234 -186 0 -191 -1 -212 -23z m308 -212
l0 -95 -95 0 -95 0 0 95 0 95 95 0 95 0 0 -95z"/>
<path d="M4162 1507 c-28 -30 -28 -68 1 -95 23 -21 31 -22 266 -22 l242 0 24
25 c14 13 25 34 25 45 0 11 -11 32 -25 45 l-24 25 -244 0 c-242 0 -244 0 -265
-23z"/>
<path d="M3395 1035 c-25 -24 -25 -26 -25 -213 0 -184 1 -189 23 -210 32 -31
137 -32 167 -2 37 37 13 120 -35 120 -12 0 -15 17 -15 95 l0 95 95 0 c76 0 95
-3 95 -14 0 -19 48 -56 72 -56 10 0 30 11 43 25 21 20 25 34 25 80 0 46 -4 60
-25 80 -24 25 -26 25 -210 25 -184 0 -186 0 -210 -25z"/>
<path d="M3836 871 l-111 -110 -42 40 c-25 23 -52 39 -67 39 -37 0 -69 -32
-69 -69 0 -27 12 -45 74 -107 106 -107 101 -109 282 74 157 158 167 177 127
220 -13 14 -33 22 -52 22 -26 0 -49 -17 -142 -109z"/>
<path d="M4162 867 c-28 -30 -28 -68 1 -95 23 -21 31 -22 266 -22 l242 0 24
25 c14 13 25 34 25 45 0 11 -11 32 -25 45 l-24 25 -244 0 c-242 0 -244 0 -265
-23z"/>
</g>
</svg>
