<?xml version="1.0" standalone="no"?>
<!DOCTYPE svg PUBLIC "-//W3C//DTD SVG 20010904//EN"
 "http://www.w3.org/TR/2001/REC-SVG-20010904/DTD/svg10.dtd">
<svg version="1.0" xmlns="http://www.w3.org/2000/svg"
 width="512.000000pt" height="512.000000pt" viewBox="0 0 512.000000 512.000000"
 preserveAspectRatio="xMidYMid meet">

<g transform="translate(0.000000,512.000000) scale(0.100000,-0.100000)"
fill="#000000" stroke="none">
<path d="M1468 4781 l-33 -29 -3 -121 -4 -121 -321 0 c-177 0 -353 -5 -392
-10 -140 -20 -249 -100 -312 -228 l-38 -76 0 -1790 0 -1791 32 -67 c41 -88
113 -160 201 -201 l67 -32 1895 0 1895 0 67 32 c88 41 160 113 201 201 l32 67
0 1790 0 1790 -32 67 c-63 134 -175 217 -318 238 -38 5 -215 10 -391 10 l-322
0 -3 121 -4 121 -33 29 c-51 45 -122 36 -155 -21 -13 -22 -17 -53 -17 -139 l0
-111 -920 0 -920 0 0 111 c0 86 -4 117 -17 139 -33 57 -104 66 -155 21z m-38
-586 c0 -70 5 -117 15 -141 30 -73 134 -79 176 -10 16 26 19 50 19 144 l0 112
920 0 920 0 0 -112 c0 -94 3 -118 19 -144 42 -69 146 -63 176 10 10 24 15 71
15 141 l0 105 353 0 c396 0 404 -2 464 -75 46 -55 53 -101 53 -329 l0 -206
-2000 0 -2000 0 0 208 c0 238 9 288 62 339 64 62 68 62 456 63 l352 0 0 -105z
m3128 -2122 l-3 -1408 -22 -42 c-25 -47 -71 -84 -122 -102 -49 -16 -3653 -16
-3702 0 -51 18 -97 55 -122 102 l-22 42 -3 1408 -2 1407 2000 0 2000 0 -2
-1407z"/>
<path d="M904 2936 l-34 -34 0 -386 c0 -420 1 -430 55 -454 19 -9 135 -12 416
-12 l391 0 29 29 29 29 0 391 c0 281 -3 397 -12 416 -24 54 -34 55 -454 55
l-386 0 -34 -34z m686 -431 l0 -255 -255 0 -255 0 0 255 0 255 255 0 255 0 0
-255z"/>
<path d="M2134 2936 l-34 -34 0 -386 c0 -420 1 -430 55 -454 41 -19 777 -17
814 2 50 26 51 38 51 452 l0 386 -34 34 -34 34 -392 0 -392 0 -34 -34z m684
-428 l-3 -253 -255 0 -255 0 -3 253 -2 252 260 0 260 0 -2 -252z"/>
<path d="M3381 2956 c-50 -27 -50 -34 -51 -454 l0 -394 29 -29 29 -29 392 0
c424 0 434 1 458 55 9 19 12 134 12 411 l0 386 -34 34 -34 34 -389 0 c-303 -1
-393 -4 -412 -14z m659 -451 l0 -255 -255 0 -255 0 0 255 0 255 255 0 255 0 0
-255z"/>
<path d="M904 1706 l-34 -34 0 -392 0 -392 34 -34 34 -34 386 0 c420 0 430 1
454 55 17 37 17 773 0 810 -24 54 -34 55 -454 55 l-386 0 -34 -34z m681 -426
l0 -255 -252 -3 -253 -2 0 260 0 260 253 -2 252 -3 0 -255z"/>
<path d="M2151 1726 c-49 -27 -50 -34 -51 -444 0 -416 1 -426 55 -450 41 -19
777 -17 814 2 50 26 51 38 51 446 0 408 -1 420 -51 446 -39 20 -782 20 -818 0z
m664 -446 l0 -255 -255 0 -255 0 -3 245 c-1 134 0 250 3 257 3 11 59 13 257
11 l253 -3 0 -255z"/>
<path d="M3381 1726 c-49 -27 -50 -34 -51 -444 0 -416 1 -426 55 -450 19 -9
134 -12 411 -12 l386 0 34 34 34 34 0 392 0 392 -34 34 -34 34 -389 0 c-303
-1 -393 -4 -412 -14z m659 -446 l0 -260 -252 2 -253 3 -3 245 c-1 134 0 250 3
257 3 10 62 13 255 13 l250 0 0 -260z"/>
</g>
</svg>
