<?xml version="1.0" standalone="no"?>
<!DOCTYPE svg PUBLIC "-//W3C//DTD SVG 20010904//EN"
 "http://www.w3.org/TR/2001/REC-SVG-20010904/DTD/svg10.dtd">
<svg version="1.0" xmlns="http://www.w3.org/2000/svg"
 width="512.000000pt" height="512.000000pt" viewBox="0 0 512.000000 512.000000"
 preserveAspectRatio="xMidYMid meet">

<g transform="translate(0.000000,512.000000) scale(0.100000,-0.100000)"
fill="#000000" stroke="none">
<path d="M2375 4899 c-782 -64 -1478 -510 -1864 -1196 -324 -576 -385 -1281
-167 -1912 116 -334 288 -611 540 -869 705 -723 1792 -913 2701 -472 491 239
898 659 1115 1150 358 809 242 1724 -306 2422 -129 164 -385 396 -564 510
-199 127 -446 236 -665 293 -166 44 -277 62 -445 75 -150 11 -199 11 -345 -1z
m299 -879 c20 -14 49 -43 64 -64 l27 -39 3 -631 2 -630 309 -311 c337 -338
337 -339 329 -445 -5 -68 -33 -116 -92 -158 -35 -24 -49 -27 -116 -27 -67 0
-82 3 -116 27 -22 15 -191 180 -376 365 -278 279 -338 345 -347 378 -9 29 -11
231 -9 737 l3 696 30 43 c45 64 104 91 186 87 50 -3 75 -10 103 -28z"/>
</g>
</svg>
