<?xml version="1.0" standalone="no"?>
<!DOCTYPE svg PUBLIC "-//W3C//DTD SVG 20010904//EN"
 "http://www.w3.org/TR/2001/REC-SVG-20010904/DTD/svg10.dtd">
<svg version="1.0" xmlns="http://www.w3.org/2000/svg"
 width="512.000000pt" height="512.000000pt" viewBox="0 0 512.000000 512.000000"
 preserveAspectRatio="xMidYMid meet">

<g transform="translate(0.000000,512.000000) scale(0.100000,-0.100000)"
fill="#000000" stroke="none">
<path d="M2130 4695 l-425 -425 153 -152 152 -153 170 170 170 170 0 -448 0
-447 210 0 210 0 0 447 0 448 170 -170 170 -170 152 153 153 152 -425 425
c-234 234 -427 425 -430 425 -3 0 -196 -191 -430 -425z"/>
<path d="M539 4027 c-24 -13 -57 -43 -74 -66 l-30 -43 0 -1357 0 -1358 27 -39
c15 -21 44 -50 65 -64 l37 -25 1996 0 1996 0 37 25 c21 14 50 43 65 64 l27 39
0 1357 0 1357 -27 39 c-15 21 -44 50 -65 64 l-37 25 -463 3 -463 3 0 -211 0
-210 318 -2 317 -3 3 -212 2 -213 -1710 0 -1710 0 2 213 3 212 318 3 317 2 0
210 0 210 -453 0 -454 0 -44 -23z m3729 -1894 l-3 -638 -1705 0 -1705 0 -3
638 -2 637 1710 0 1710 0 -2 -637z"/>
<path d="M1280 2135 l0 -215 129 0 c121 0 132 2 182 28 39 20 62 41 84 77 30
48 30 51 30 184 l0 136 -212 3 -213 2 0 -215z"/>
</g>
</svg>
