<?xml version="1.0" standalone="no"?>
<!DOCTYPE svg PUBLIC "-//W3C//DTD SVG 20010904//EN"
 "http://www.w3.org/TR/2001/REC-SVG-20010904/DTD/svg10.dtd">
<svg version="1.0" xmlns="http://www.w3.org/2000/svg"
 width="512.000000pt" height="512.000000pt" viewBox="0 0 512.000000 512.000000"
 preserveAspectRatio="xMidYMid meet">

<g transform="translate(0.000000,512.000000) scale(0.100000,-0.100000)"
fill="#000000" stroke="none">
<path d="M184 4772 c-85 -30 -152 -100 -174 -183 -7 -24 -9 -631 -8 -1700 3
-1632 3 -1665 23 -1704 25 -50 80 -105 130 -130 39 -19 68 -20 908 -23 l867
-2 0 -165 0 -165 -154 0 c-169 0 -207 -8 -279 -60 -130 -93 -147 -236 -36
-292 32 -17 105 -18 1099 -18 994 0 1067 1 1099 18 50 25 74 63 74 116 0 82
-90 185 -194 221 -30 11 -85 15 -195 15 l-154 0 0 165 0 165 868 2 867 3 50
26 c64 33 121 107 135 174 8 35 10 553 8 1705 l-3 1655 -22 41 c-30 56 -79
103 -133 128 l-45 21 -2340 2 c-2213 2 -2343 1 -2391 -15z m4753 -118 c15 -11
38 -36 51 -54 l22 -33 0 -1343 0 -1344 -2450 0 -2450 0 0 1340 c0 1447 -3
1366 52 1417 12 12 34 26 48 32 16 6 823 9 2362 8 l2337 -2 28 -21z m71 -3151
c-3 -259 -4 -269 -25 -299 -50 -70 161 -64 -2423 -64 -2584 0 -2373 -6 -2423
64 -21 30 -22 40 -25 299 l-3 267 2451 0 2451 0 -3 -267z m-1928 -638 l0 -165
-520 0 -520 0 0 165 0 165 520 0 520 0 0 -165z m417 -280 c36 -11 62 -28 92
-60 80 -87 174 -80 -1029 -80 -1203 0 -1109 -7 -1029 80 71 77 20 74 1025 74
764 1 898 -1 941 -14z"/>
<path d="M1015 4348 c-27 -5 -92 -29 -142 -54 -381 -184 -455 -688 -143 -977
118 -110 251 -161 410 -161 457 2 745 493 523 893 -51 94 -161 199 -254 245
-121 59 -263 79 -394 54z m67 -358 c2 -196 6 -262 16 -272 10 -10 76 -14 272
-16 202 -2 260 -6 260 -16 0 -7 -7 -37 -16 -67 -70 -237 -314 -392 -557 -351
-206 35 -374 203 -409 409 -41 243 119 494 353 557 30 8 59 15 66 15 9 1 13
-64 15 -259z m200 240 c114 -35 212 -111 277 -215 29 -46 71 -159 71 -191 0
-12 -38 -14 -220 -14 l-220 0 0 220 c0 182 2 220 14 220 8 0 43 -9 78 -20z"/>
<path d="M3037 4263 c-528 -507 -587 -566 -587 -593 0 -34 21 -52 53 -48 17 2
129 103 333 300 170 163 312 298 315 300 4 2 142 -159 308 -357 166 -198 311
-368 323 -377 11 -10 28 -18 37 -18 28 1 695 478 705 505 13 33 -18 68 -54 63
-14 -3 -164 -103 -333 -223 l-309 -218 -22 24 c-13 13 -155 182 -316 374 -162
193 -299 353 -304 357 -27 19 -55 2 -149 -89z"/>
<path d="M2984 3722 c-12 -9 -27 -27 -33 -39 -14 -28 -16 -1379 -1 -1417 20
-53 61 -66 210 -66 159 0 191 12 209 77 7 25 11 266 11 701 0 712 0 710 -51
746 -35 24 -315 23 -345 -2z m286 -747 l0 -665 -110 0 -110 0 0 665 0 665 110
0 110 0 0 -665z"/>
<path d="M4311 3506 c-51 -28 -50 -19 -51 -648 l0 -588 29 -32 29 -33 157 0
157 0 29 33 29 32 0 593 c0 546 -2 594 -18 613 -9 12 -27 27 -39 33 -32 16
-291 14 -322 -3z m279 -646 l0 -550 -115 0 -115 0 0 550 0 550 115 0 115 0 0
-550z"/>
<path d="M2375 3194 c-41 -10 -65 -28 -80 -59 -22 -49 -23 -831 0 -875 26 -51
59 -60 207 -60 114 0 138 3 165 20 52 31 54 53 51 502 l-3 408 -32 32 -33 32
-127 3 c-71 1 -137 0 -148 -3z m235 -494 l0 -390 -110 0 -110 0 0 390 0 390
110 0 110 0 0 -390z"/>
<path d="M3672 3189 c-20 -6 -40 -22 -52 -42 -19 -30 -20 -53 -20 -454 l0
-423 29 -32 29 -33 137 -3 c158 -4 173 -2 208 34 l27 27 0 432 c0 420 -1 433
-20 458 -12 15 -38 31 -58 37 -46 12 -235 12 -280 -1z m258 -489 l0 -390 -110
0 -110 0 0 390 0 390 110 0 110 0 0 -390z"/>
<path d="M567 2933 c-29 -7 -41 -51 -22 -79 l15 -24 574 0 c542 0 574 1 589
18 23 26 21 58 -5 76 -20 14 -90 16 -578 15 -305 -1 -563 -3 -573 -6z"/>
<path d="M544 2595 c-15 -23 -15 -27 0 -50 l16 -25 580 0 c562 0 580 1 590 19
14 27 13 47 -6 65 -14 14 -81 16 -589 16 l-575 0 -16 -25z"/>
<path d="M550 2290 c-11 -11 -20 -27 -20 -35 0 -8 9 -24 20 -35 20 -20 33 -20
588 -20 538 0 570 1 585 18 23 26 21 58 -5 76 -20 14 -92 16 -585 16 -550 0
-563 0 -583 -20z"/>
<path d="M2545 1635 c-5 -2 -22 -6 -37 -9 -37 -8 -98 -63 -114 -103 -27 -64
-14 -135 34 -186 39 -42 75 -57 132 -57 57 0 93 15 132 57 98 103 37 270 -107
295 -16 3 -34 4 -40 3z m59 -126 c36 -28 36 -80 0 -108 -15 -12 -34 -21 -44
-21 -34 0 -70 39 -70 75 0 36 36 75 70 75 10 0 29 -9 44 -21z"/>
</g>
</svg>
