<?xml version="1.0" standalone="no"?>
<!DOCTYPE svg PUBLIC "-//W3C//DTD SVG 20010904//EN"
 "http://www.w3.org/TR/2001/REC-SVG-20010904/DTD/svg10.dtd">
<svg version="1.0" xmlns="http://www.w3.org/2000/svg"
 width="512.000000pt" height="512.000000pt" viewBox="0 0 512.000000 512.000000"
 preserveAspectRatio="xMidYMid meet">

<g transform="translate(0.000000,512.000000) scale(0.100000,-0.100000)"
fill="#000000" stroke="none">
<path d="M491 4954 c-119 -32 -234 -122 -285 -222 -59 -117 -56 1 -56 -2022 0
-2032 -3 -1910 58 -2024 34 -63 115 -143 179 -179 108 -58 68 -57 1385 -57
l1207 0 83 -60 c336 -242 725 -302 1106 -169 397 139 688 484 767 908 19 106
20 313 0 422 -73 419 -377 776 -775 912 -137 47 -233 62 -397 62 l-153 0 0
1036 c0 1004 -1 1039 -20 1100 -48 154 -177 268 -340 299 -34 6 -527 10 -1379
9 -1126 0 -1334 -3 -1380 -15z m2739 -302 c19 -9 45 -32 57 -51 l23 -34 0
-1063 0 -1064 -72 -36 c-40 -20 -107 -60 -149 -89 l-77 -53 -6 30 c-8 42 -40
83 -80 102 -31 14 -133 16 -1048 16 -969 0 -1015 -1 -1048 -19 -49 -26 -74
-73 -74 -138 0 -61 22 -99 75 -125 32 -17 102 -18 1031 -18 l997 0 -53 -78
c-30 -42 -70 -110 -90 -149 l-36 -73 -913 -2 c-850 -3 -914 -4 -944 -21 -43
-23 -67 -70 -67 -133 0 -59 19 -95 67 -124 31 -19 57 -20 897 -20 l865 0 -3
-143 c-3 -104 1 -168 13 -231 18 -99 66 -248 101 -318 13 -26 24 -52 24 -58 0
-7 -331 -10 -1082 -8 l-1083 3 -36 23 c-74 46 -69 -108 -69 1935 0 1793 1
1833 20 1875 15 33 29 47 62 62 42 19 77 20 1353 20 1227 0 1312 -1 1345 -18z
m749 -2447 c87 -21 182 -60 266 -109 95 -56 237 -200 297 -301 268 -454 88
-1042 -388 -1261 -228 -106 -521 -106 -750 1 -245 113 -425 333 -491 602 -25
102 -23 314 5 416 97 356 377 612 727 667 79 12 254 4 334 -15z"/>
<path d="M855 4205 c-50 -18 -92 -66 -100 -116 -9 -52 22 -119 67 -147 35 -22
37 -22 688 -22 733 0 692 -4 730 75 25 51 25 88 1 142 -38 82 -3 78 -716 80
-524 2 -637 0 -670 -12z"/>
<path d="M823 3590 c-48 -29 -67 -65 -67 -126 0 -65 22 -100 84 -131 l44 -23
1001 0 1001 0 44 23 c29 14 51 34 62 57 35 70 14 165 -46 201 -30 18 -71 19
-1061 19 -1003 0 -1031 -1 -1062 -20z"/>
<path d="M831 2993 c-54 -28 -75 -65 -75 -128 0 -59 17 -91 68 -129 27 -21 35
-21 1049 -24 958 -2 1024 -1 1057 15 96 49 108 175 25 253 l-27 25 -1031 3
c-967 2 -1034 1 -1066 -15z"/>
<path d="M4190 1803 c-16 -3 -124 -103 -292 -271 l-268 -266 -112 111 c-122
120 -156 138 -223 123 -90 -20 -142 -129 -101 -208 8 -15 92 -104 188 -199
134 -132 182 -173 211 -181 79 -22 86 -16 435 331 178 177 330 334 338 349 44
83 -20 199 -116 211 -19 3 -46 3 -60 0z"/>
</g>
</svg>
