<?xml version="1.0" standalone="no"?>
<!DOCTYPE svg PUBLIC "-//W3C//DTD SVG 20010904//EN"
 "http://www.w3.org/TR/2001/REC-SVG-20010904/DTD/svg10.dtd">
<svg version="1.0" xmlns="http://www.w3.org/2000/svg"
 width="512.000000pt" height="512.000000pt" viewBox="0 0 512.000000 512.000000"
 preserveAspectRatio="xMidYMid meet">

<g transform="translate(0.000000,512.000000) scale(0.100000,-0.100000)"
fill="#000000" stroke="none">
<path d="M2396 5024 c-145 -26 -311 -109 -427 -212 -141 -126 -251 -337 -280
-536 -5 -38 -10 -70 -12 -71 -1 -1 -111 -61 -244 -134 l-243 -133 -62 21
c-286 93 -600 18 -813 -194 -154 -154 -230 -340 -230 -565 0 -226 75 -408 231
-564 156 -156 338 -231 564 -231 174 0 298 36 432 124 319 209 447 596 314
951 -40 109 -105 207 -195 294 -40 38 -69 71 -66 74 9 10 320 180 322 178 2
-2 12 -38 23 -82 55 -215 195 -409 384 -529 59 -37 187 -95 212 -95 20 0 20
-1509 1 -1554 -12 -28 -14 -25 -31 70 -58 305 -85 380 -180 481 -127 137 -336
201 -463 144 -83 -38 -130 -145 -103 -234 6 -22 34 -74 62 -115 87 -129 93
-149 128 -432 17 -140 38 -280 46 -310 9 -30 83 -193 165 -362 149 -307 149
-308 149 -378 l0 -70 -80 0 -80 0 0 -240 0 -240 880 0 880 0 0 240 0 240 -80
0 -80 0 0 66 0 67 79 106 c84 113 101 143 134 230 21 54 22 73 25 646 2 449 0
601 -9 635 -17 59 -97 141 -155 158 -49 14 -104 15 -137 3 -22 -9 -26 -6 -43
31 -58 130 -229 177 -346 96 -28 -19 -28 -19 -55 0 -45 31 -101 45 -159 39
l-54 -6 0 342 0 342 70 24 c251 86 472 333 540 605 11 44 21 80 23 82 2 3 312
-168 322 -177 3 -4 -26 -37 -66 -75 -374 -361 -317 -960 119 -1245 134 -88
258 -124 432 -124 226 0 408 75 564 231 156 156 231 338 231 564 0 174 -36
298 -124 432 -201 307 -573 440 -919 327 l-62 -21 -245 134 -244 133 -6 45
c-14 96 -47 209 -86 290 -172 360 -557 555 -953 484z m379 -178 c113 -36 198
-89 290 -181 92 -92 144 -175 182 -290 22 -68 26 -98 27 -205 1 -91 -4 -143
-17 -190 -18 -67 -74 -187 -106 -229 l-18 -23 -28 47 c-39 67 -150 177 -217
215 l-58 32 35 42 c19 23 47 69 62 102 24 51 28 71 28 154 0 86 -3 101 -32
162 -44 93 -100 151 -191 196 -72 35 -81 37 -172 37 -91 0 -100 -2 -172 -37
-91 -45 -147 -103 -191 -196 -29 -61 -32 -76 -32 -162 0 -83 4 -103 28 -154
15 -33 43 -79 62 -102 l35 -42 -53 -30 c-74 -42 -160 -123 -209 -198 l-43 -64
-17 22 c-31 41 -87 161 -105 228 -28 103 -24 292 9 392 39 119 92 204 182 294
110 110 236 177 381 204 88 16 250 4 340 -24z m-141 -298 c86 -26 166 -136
166 -228 0 -124 -116 -240 -240 -240 -124 0 -240 116 -240 240 0 63 23 114 75
165 70 71 145 90 239 63z m41 -643 c89 -24 170 -71 231 -137 67 -73 110 -153
94 -173 -19 -23 -108 -76 -167 -101 l-57 -23 -35 41 c-43 50 -120 88 -181 88
-61 0 -138 -38 -181 -88 l-35 -41 -57 23 c-59 25 -148 78 -167 101 -16 20 27
100 94 173 117 126 297 179 461 137z m-1660 -80 c214 -44 410 -223 476 -435
56 -178 24 -392 -81 -544 l-30 -45 -39 42 c-22 23 -73 64 -114 91 l-76 49 34
42 c19 23 47 68 62 101 24 51 28 71 28 154 0 86 -3 101 -32 162 -44 93 -100
151 -191 196 -72 35 -81 37 -172 37 -91 0 -100 -2 -172 -37 -91 -45 -147 -103
-191 -196 -29 -61 -32 -76 -32 -162 0 -83 4 -103 28 -154 15 -33 43 -78 62
-101 l34 -42 -76 -49 c-41 -27 -92 -68 -114 -91 l-39 -42 -30 45 c-172 248
-138 587 80 804 156 156 369 220 585 175z m3360 0 c214 -44 410 -223 476 -435
56 -178 24 -392 -81 -544 l-30 -45 -39 42 c-22 23 -73 64 -114 91 l-76 49 34
42 c19 23 47 68 62 101 24 51 28 71 28 154 0 86 -3 101 -32 162 -44 93 -100
151 -191 196 -72 35 -81 37 -172 37 -91 0 -100 -2 -172 -37 -91 -45 -147 -103
-191 -196 -29 -61 -32 -76 -32 -162 0 -83 4 -103 28 -154 15 -33 43 -78 62
-101 l34 -42 -76 -49 c-41 -27 -92 -68 -114 -91 l-39 -42 -30 45 c-172 248
-138 587 80 804 156 156 369 220 585 175z m-3421 -317 c86 -26 166 -136 166
-228 0 -124 -116 -240 -240 -240 -63 0 -114 23 -165 75 -102 101 -102 229 0
330 70 71 145 90 239 63z m3360 0 c86 -26 166 -136 166 -228 0 -124 -116 -240
-240 -240 -63 0 -114 23 -165 75 -102 101 -102 229 0 330 70 71 145 90 239 63z
m-1699 -93 l25 -24 0 -656 0 -655 80 0 80 0 0 175 c0 173 0 176 25 200 32 33
78 33 110 0 25 -24 25 -27 25 -200 l0 -175 80 0 80 0 0 175 c0 173 0 176 25
200 15 16 36 25 55 25 19 0 40 -9 55 -25 25 -24 25 -27 25 -200 l0 -175 80 0
80 0 0 95 c0 88 2 98 25 120 32 33 78 33 111 0 l25 -25 -3 -582 -3 -583 -31
-65 c-18 -36 -70 -116 -118 -179 l-86 -114 0 -94 0 -93 -560 0 -560 0 0 89 0
90 -151 308 c-82 169 -157 328 -164 353 -8 25 -28 155 -45 290 -17 135 -39
274 -50 310 -16 55 -48 114 -144 263 -36 56 84 73 186 25 69 -32 136 -97 167
-161 14 -30 45 -157 80 -325 l56 -277 98 -3 98 -3 44 93 c24 51 48 113 54 138
7 29 11 330 11 843 l0 798 25 24 c15 16 36 25 55 25 19 0 40 -9 55 -25z
m-1620 -550 c83 -22 164 -68 220 -125 47 -48 48 -50 30 -65 -78 -60 -255 -115
-370 -115 -108 0 -284 56 -360 115 -18 15 -17 17 30 65 114 116 292 166 450
125z m3360 0 c83 -22 164 -68 220 -125 47 -48 48 -50 30 -65 -78 -60 -255
-115 -370 -115 -108 0 -284 56 -360 115 -18 15 -17 17 30 65 114 116 292 166
450 125z m-835 -2545 l0 -80 -720 0 -720 0 0 80 0 80 720 0 720 0 0 -80z"/>
<path d="M560 1711 l0 -529 -30 -12 c-68 -28 -130 -129 -130 -210 0 -124 116
-240 240 -240 124 0 240 116 240 240 0 81 -62 182 -130 210 l-30 12 0 529 0
529 -80 0 -80 0 0 -529z m135 -696 c16 -15 25 -36 25 -55 0 -19 -9 -40 -25
-55 -49 -50 -135 -15 -135 55 0 41 39 80 80 80 19 0 40 -9 55 -25z"/>
<path d="M1040 2227 c-19 -6 -58 -34 -85 -62 -71 -70 -91 -146 -63 -237 14
-48 76 -121 118 -138 l30 -12 0 -529 0 -529 80 0 80 0 0 529 0 529 30 12 c42
17 104 90 118 138 26 86 8 162 -55 232 -65 72 -158 97 -253 67z m135 -172 c16
-15 25 -36 25 -55 0 -19 -9 -40 -25 -55 -15 -16 -36 -25 -55 -25 -19 0 -40 9
-55 25 -16 15 -25 36 -25 55 0 19 9 40 25 55 15 16 36 25 55 25 19 0 40 -9 55
-25z"/>
<path d="M4080 1711 l0 -529 -30 -12 c-68 -28 -130 -129 -130 -210 0 -124 116
-240 240 -240 124 0 240 116 240 240 0 81 -62 182 -130 210 l-30 12 0 529 0
529 -80 0 -80 0 0 -529z m135 -696 c50 -49 15 -135 -55 -135 -41 0 -80 39 -80
80 0 41 39 80 80 80 19 0 40 -9 55 -25z"/>
<path d="M4560 2227 c-19 -6 -58 -34 -85 -62 -71 -70 -91 -146 -63 -237 14
-48 76 -121 118 -138 l30 -12 0 -529 0 -529 80 0 80 0 0 529 0 529 30 12 c42
17 104 90 118 138 26 86 8 162 -55 232 -65 72 -158 97 -253 67z m135 -172 c50
-49 15 -135 -55 -135 -41 0 -80 39 -80 80 0 41 39 80 80 80 19 0 40 -9 55 -25z"/>
</g>
</svg>
