<?xml version="1.0" standalone="no"?>
<!DOCTYPE svg PUBLIC "-//W3C//DTD SVG 20010904//EN"
 "http://www.w3.org/TR/2001/REC-SVG-20010904/DTD/svg10.dtd">
<svg version="1.0" xmlns="http://www.w3.org/2000/svg"
 width="512.000000pt" height="512.000000pt" viewBox="0 0 512.000000 512.000000"
 preserveAspectRatio="xMidYMid meet">

<g transform="translate(0.000000,512.000000) scale(0.100000,-0.100000)"
fill="#000000" stroke="none">
<path d="M1321 4869 c-163 -32 -313 -177 -350 -340 -6 -26 -11 -210 -11 -441
l0 -398 -242 0 c-135 0 -259 -5 -280 -10 -63 -18 -129 -70 -162 -130 l-31 -55
-3 -609 c-2 -419 1 -626 8 -663 39 -188 195 -335 385 -363 39 -5 283 -10 553
-10 l482 0 0 -620 c0 -420 4 -636 11 -672 33 -155 153 -275 307 -307 70 -14
2517 -15 2580 -1 119 28 213 103 269 218 l38 76 0 189 0 189 -28 24 c-27 23
-33 24 -193 24 l-164 0 0 1738 c0 1202 -3 1757 -11 1798 -32 177 -177 324
-357 363 -64 13 -2731 14 -2801 0z m225 -224 c24 -14 55 -40 68 -58 59 -78 56
3 56 -1322 l0 -1215 -300 0 -299 0 20 35 c56 95 54 34 59 1270 l5 1140 29 53
c42 75 103 119 185 131 61 9 124 -3 177 -34z m2586 23 c58 -28 109 -78 134
-133 l24 -50 0 -1757 0 -1758 -981 0 c-683 0 -986 -3 -1001 -11 -38 -20 -48
-68 -48 -227 0 -137 -2 -153 -23 -193 -71 -134 -273 -134 -344 0 l-23 44 0
1921 c0 1272 -4 1942 -10 1985 -6 35 -24 93 -40 128 -17 36 -30 68 -30 70 0 2
519 2 1153 1 1072 -3 1155 -4 1189 -20z m-3177 -1798 c0 -556 -2 -629 -16
-661 -95 -208 -387 -212 -480 -7 l-24 53 -3 585 c-2 460 1 590 11 610 24 47
45 50 287 47 l225 -2 0 -625z m3732 -2188 c-7 -135 -32 -183 -117 -228 -33
-18 -82 -19 -1097 -22 -585 -1 -1063 0 -1063 3 0 3 10 34 21 68 14 41 23 98
27 170 l5 107 1115 0 1115 0 -6 -98z"/>
<path d="M2420 4388 c-38 -14 -59 -38 -66 -75 -5 -26 -15 -38 -43 -53 -49 -25
-106 -86 -130 -140 -28 -62 -28 -168 0 -230 42 -95 140 -164 246 -176 73 -9
100 -26 114 -74 10 -33 9 -43 -8 -71 -26 -45 -80 -66 -119 -47 -16 7 -38 29
-50 48 -38 60 -61 80 -94 80 -97 0 -129 -85 -71 -186 29 -50 75 -93 124 -115
17 -8 27 -22 31 -44 12 -63 80 -99 135 -71 34 18 51 43 51 76 0 13 11 27 32
38 54 29 108 84 136 136 36 69 38 189 5 252 -54 101 -120 148 -239 168 -63 11
-83 19 -101 40 -52 61 -8 156 72 156 50 0 71 -14 95 -60 25 -48 55 -70 98 -70
45 0 92 46 92 90 0 67 -74 167 -158 212 -23 12 -32 24 -32 41 0 52 -68 94
-120 75z"/>
<path d="M3003 4389 c-67 -19 -89 -108 -39 -158 l26 -26 481 0 481 0 24 28
c28 33 32 91 9 124 -9 12 -32 27 -53 33 -47 13 -884 12 -929 -1z"/>
<path d="M2992 3895 c-22 -9 -38 -27 -48 -50 -14 -33 -13 -40 3 -73 10 -20 29
-42 43 -49 19 -10 137 -13 478 -13 483 0 496 1 522 49 13 26 13 77 -1 103 -25
46 -50 48 -521 48 -361 -1 -449 -3 -476 -15z"/>
<path d="M2992 3405 c-22 -9 -38 -27 -48 -50 -14 -33 -13 -40 3 -73 10 -20 29
-42 43 -49 19 -10 137 -13 478 -13 483 0 496 1 522 49 13 26 13 77 -1 103 -25
46 -50 48 -521 48 -361 -1 -449 -3 -476 -15z"/>
<path d="M2213 2915 c-37 -16 -53 -42 -53 -85 0 -44 16 -69 55 -86 51 -21
1679 -21 1730 0 39 17 55 42 55 86 0 44 -16 69 -55 86 -50 21 -1684 20 -1732
-1z"/>
<path d="M2208 2424 c-34 -18 -48 -43 -48 -84 0 -44 16 -69 55 -86 51 -21
1679 -21 1730 0 39 17 55 42 55 86 0 42 -15 67 -50 85 -43 22 -1701 22 -1742
-1z"/>
<path d="M3299 2035 c-83 -45 -46 -175 49 -175 89 0 127 102 61 163 -33 30
-69 34 -110 12z"/>
<path d="M3858 2032 c-41 -26 -588 -611 -599 -640 -23 -61 23 -122 93 -122 47
0 31 -15 382 358 265 281 266 282 266 326 0 37 -5 48 -31 70 -36 30 -73 33
-111 8z"/>
<path d="M2208 1935 c-34 -19 -48 -44 -48 -87 0 -45 23 -75 68 -88 22 -6 168
-10 357 -10 285 0 324 2 355 18 65 32 76 104 24 153 l-26 24 -351 2 c-297 2
-356 0 -379 -12z"/>
<path d="M2208 1445 c-34 -19 -48 -44 -48 -87 0 -45 23 -75 68 -88 22 -6 168
-10 357 -10 285 0 324 2 355 18 65 32 76 104 24 153 l-26 24 -351 2 c-297 2
-356 0 -379 -12z"/>
<path d="M3874 1451 c-39 -17 -66 -62 -60 -99 6 -42 22 -61 64 -79 93 -39 169
93 93 161 -22 20 -70 28 -97 17z"/>
</g>
</svg>
