<?xml version="1.0" standalone="no"?>
<!DOCTYPE svg PUBLIC "-//W3C//DTD SVG 20010904//EN"
 "http://www.w3.org/TR/2001/REC-SVG-20010904/DTD/svg10.dtd">
<svg version="1.0" xmlns="http://www.w3.org/2000/svg"
 width="512.000000pt" height="512.000000pt" viewBox="0 0 512.000000 512.000000"
 preserveAspectRatio="xMidYMid meet">

<g transform="translate(0.000000,512.000000) scale(0.100000,-0.100000)"
fill="#000000" stroke="none">
<path d="M386 5029 c-62 -15 -153 -68 -197 -116 -22 -24 -55 -74 -72 -111 -30
-63 -32 -75 -35 -209 -4 -141 -4 -142 21 -167 l26 -26 295 0 296 0 2 -2008 3
-2008 37 -76 c45 -91 103 -147 196 -191 l67 -32 1856 0 1855 0 76 37 c91 45
147 103 191 196 30 63 32 75 35 209 4 141 4 142 -21 167 l-26 26 -295 0 -296
0 -2 2008 -3 2007 -32 67 c-44 93 -100 151 -191 196 l-76 37 -1835 2 c-1086 0
-1852 -3 -1875 -8z m3256 -218 c-29 -59 -35 -83 -40 -160 l-5 -91 -1678 0
-1679 0 0 56 c0 31 5 75 12 98 15 51 99 137 148 153 25 8 505 11 1656 12
l1620 1 -34 -69z m432 57 c55 -16 138 -99 154 -154 9 -32 12 -495 12 -2018 l0
-1976 -1415 0 -1416 0 -24 -25 c-24 -23 -25 -31 -25 -136 0 -144 -11 -181 -75
-244 -51 -52 -102 -75 -165 -75 -92 0 -202 80 -228 166 -9 32 -12 495 -12
2018 l0 1976 1415 0 1416 0 24 25 c24 23 25 31 25 136 0 144 11 181 75 244 70
71 145 90 239 63z m806 -4364 c0 -31 -5 -75 -12 -98 -16 -55 -99 -138 -154
-154 -32 -9 -417 -12 -1656 -12 l-1614 0 34 69 c29 59 35 83 40 160 l5 91
1678 0 1679 0 0 -56z"/>
<path d="M2253 4153 c-44 -71 -176 -285 -293 -476 l-214 -348 -121 121 c-66
66 -125 120 -131 120 -13 0 -104 -92 -104 -106 0 -5 76 -85 168 -177 143 -141
173 -167 198 -167 17 0 38 6 47 13 9 6 163 248 341 537 364 591 338 526 237
583 l-50 27 -78 -127z"/>
<path d="M1635 4230 c-145 -27 -271 -94 -381 -204 -90 -90 -143 -175 -182
-294 -22 -67 -26 -94 -25 -212 0 -119 3 -144 26 -215 38 -115 91 -199 182
-290 91 -91 175 -144 290 -182 71 -23 96 -26 215 -26 119 0 144 3 215 26 115
38 199 91 290 182 91 91 144 175 182 290 23 69 26 98 27 210 1 109 -3 142 -22
202 l-22 73 -53 -21 c-28 -12 -63 -25 -76 -30 -17 -7 -21 -14 -16 -27 23 -51
37 -153 31 -227 -16 -234 -165 -423 -396 -501 -76 -26 -244 -26 -320 0 -271
91 -432 344 -392 617 44 302 330 515 630 472 43 -7 104 -23 135 -37 l57 -25
14 22 c7 12 25 43 40 69 l26 47 -37 20 c-111 56 -312 84 -438 61z"/>
<path d="M1040 2560 l0 -80 80 0 80 0 0 80 0 80 -80 0 -80 0 0 -80z"/>
<path d="M1360 2560 l0 -80 1360 0 1360 0 0 80 0 80 -1360 0 -1360 0 0 -80z"/>
<path d="M1040 2240 l0 -80 1360 0 1360 0 0 80 0 80 -1360 0 -1360 0 0 -80z"/>
<path d="M3920 2240 l0 -80 80 0 80 0 0 80 0 80 -80 0 -80 0 0 -80z"/>
<path d="M1040 1920 l0 -80 80 0 80 0 0 80 0 80 -80 0 -80 0 0 -80z"/>
<path d="M1360 1920 l0 -80 1360 0 1360 0 0 80 0 80 -1360 0 -1360 0 0 -80z"/>
<path d="M1040 1600 l0 -80 1360 0 1360 0 0 80 0 80 -1360 0 -1360 0 0 -80z"/>
<path d="M3920 1600 l0 -80 80 0 80 0 0 80 0 80 -80 0 -80 0 0 -80z"/>
<path d="M1040 1280 l0 -80 80 0 80 0 0 80 0 80 -80 0 -80 0 0 -80z"/>
<path d="M1360 1280 l0 -80 1360 0 1360 0 0 80 0 80 -1360 0 -1360 0 0 -80z"/>
<path d="M1040 960 l0 -80 1360 0 1360 0 0 80 0 80 -1360 0 -1360 0 0 -80z"/>
<path d="M3920 960 l0 -80 80 0 80 0 0 80 0 80 -80 0 -80 0 0 -80z"/>
</g>
</svg>
