<svg width="22" height="19" viewBox="0 0 22 19" fill="none" xmlns="http://www.w3.org/2000/svg">
<path fill-rule="evenodd" clip-rule="evenodd" d="M7.09147 4.41623C6.33264 5.16407 5.75268 6.07378 5.39495 7.07733C5.03721 8.08088 4.91096 9.15232 5.02562 10.2115C5.05876 10.5256 4.9658 10.8399 4.76718 11.0854C4.56856 11.3309 4.28055 11.4874 3.96652 11.5205C3.65249 11.5537 3.33816 11.4607 3.09267 11.2621C2.84719 11.0635 2.69066 10.7755 2.65752 10.4614C2.50553 9.04655 2.6751 7.61559 3.15356 6.2754C3.63202 4.93521 4.40702 3.7204 5.4207 2.72166C9.15255 -0.957825 15.1668 -0.895945 18.8546 2.84304C22.5437 6.58322 22.521 12.5987 18.7904 16.2782C17.0632 17.9846 14.7444 18.959 12.3168 18.9985C11.3993 19.0147 10.4843 18.8984 9.59999 18.6534C9.4459 18.615 9.30105 18.5461 9.174 18.4508C9.04694 18.3555 8.94025 18.2358 8.8602 18.0986C8.78015 17.9614 8.72837 17.8096 8.70791 17.6521C8.68744 17.4946 8.69871 17.3346 8.74105 17.1816C8.78339 17.0285 8.85594 16.8854 8.95443 16.7608C9.05292 16.6362 9.17535 16.5326 9.3145 16.4561C9.45366 16.3796 9.60674 16.3316 9.7647 16.3152C9.92266 16.2987 10.0823 16.3141 10.2343 16.3603C10.8981 16.5443 11.5851 16.6313 12.2739 16.6185C14.0907 16.5899 15.8262 15.8609 17.1184 14.5836C19.9066 11.8347 19.9328 7.32578 17.1601 4.515C14.3874 1.70302 9.87845 1.66732 7.09147 4.41623Z" fill="#49454F"/>
<path fill-rule="evenodd" clip-rule="evenodd" d="M4.72573 11.4254C4.62182 11.5421 4.49593 11.6373 4.35524 11.7054C4.21456 11.7734 4.06184 11.8132 3.9058 11.8222C3.74977 11.8313 3.59348 11.8095 3.44586 11.7582C3.29824 11.7068 3.16218 11.6269 3.04545 11.5229L0.998645 9.70224C0.762886 9.49237 0.620157 9.19743 0.601857 8.88231C0.583557 8.5672 0.691186 8.25772 0.901065 8.02196C1.11094 7.7862 1.40588 7.64347 1.721 7.62517C2.03611 7.60687 2.34559 7.7145 2.58135 7.92438L4.62815 9.74509C4.74491 9.849 4.84004 9.97489 4.90814 10.1156C4.97623 10.2563 5.01594 10.409 5.025 10.565C5.03406 10.721 5.0123 10.8773 4.96095 11.025C4.9096 11.1726 4.82967 11.3086 4.72573 11.4254Z" fill="#49454F"/>
<path fill-rule="evenodd" clip-rule="evenodd" d="M2.88481 11.3123C2.97857 11.4373 3.09604 11.5427 3.23051 11.6223C3.36498 11.7019 3.51381 11.7543 3.66852 11.7764C3.82322 11.7985 3.98076 11.7899 4.13214 11.7511C4.28353 11.7123 4.42579 11.6441 4.55081 11.5503L6.93081 9.76533C7.1833 9.57596 7.35022 9.29405 7.39486 8.98162C7.43949 8.66918 7.35818 8.35181 7.16882 8.09932C6.97945 7.84684 6.69754 7.67992 6.3851 7.63528C6.07267 7.59065 5.7553 7.67196 5.50281 7.86132L3.12281 9.64633C2.99779 9.74009 2.89246 9.85756 2.81284 9.99203C2.73322 10.1265 2.68087 10.2753 2.65877 10.43C2.63666 10.5847 2.64525 10.7423 2.68404 10.8937C2.72282 11.045 2.79104 11.1873 2.88481 11.3123ZM11.905 4.64832C12.2206 4.64832 12.5233 4.77369 12.7465 4.99686C12.9697 5.22003 13.095 5.52271 13.095 5.83832V10.0033C13.095 10.3189 12.9697 10.6216 12.7465 10.8448C12.5233 11.068 12.2206 11.1933 11.905 11.1933C11.5894 11.1933 11.2867 11.068 11.0636 10.8448C10.8404 10.6216 10.715 10.3189 10.715 10.0033V5.83832C10.715 5.52271 10.8404 5.22003 11.0636 4.99686C11.2867 4.77369 11.5894 4.64832 11.905 4.64832Z" fill="#49454F"/>
<path fill-rule="evenodd" clip-rule="evenodd" d="M16.665 10.0032C16.665 10.3188 16.5396 10.6215 16.3165 10.8447C16.0933 11.0679 15.7906 11.1932 15.475 11.1932H11.905C11.5894 11.1932 11.2867 11.0679 11.0636 10.8447C10.8404 10.6215 10.715 10.3188 10.715 10.0032C10.715 9.68763 10.8404 9.38495 11.0636 9.16178C11.2867 8.93861 11.5894 8.81323 11.905 8.81323H15.475C15.7906 8.81323 16.0933 8.93861 16.3165 9.16178C16.5396 9.38495 16.665 9.68763 16.665 10.0032Z" fill="#49454F"/>
</svg>
