<svg width="35" height="35" viewBox="0 0 35 35" fill="none" xmlns="http://www.w3.org/2000/svg">
<path d="M32.1499 30.3527C32.1461 30.6535 32.087 30.9314 31.9723 31.1863C31.8577 31.4413 31.7045 31.6623 31.5127 31.8493C31.3209 32.0364 31.0906 32.1896 30.8216 32.3089C30.5526 32.4281 30.2733 32.4804 29.9837 32.4656L19.2859 32.3327L14.9635 34.4189L29.9572 34.6052C30.5478 34.6125 31.1007 34.5079 31.6161 34.2914C32.1315 34.0749 32.5922 33.7742 32.9982 33.3891C33.4042 33.0041 33.7163 32.5566 33.9344 32.0466C34.1525 31.5366 34.2708 30.9809 34.2894 30.3792L34.6085 4.70453C34.6153 4.1585 34.5049 3.62773 34.2772 3.11222C34.0496 2.59671 33.7377 2.13587 33.3415 1.72972C32.9453 1.32357 32.4924 1.0003 31.9827 0.759916C31.473 0.519532 30.9396 0.390306 30.3826 0.372239L6.84742 0.079768L6.70596 11.4629L8.85881 10.4197L8.96039 2.24592L30.356 2.5118C30.6123 2.51498 30.8678 2.57946 31.1226 2.70522C31.3774 2.83099 31.6037 3.00098 31.8017 3.2152C31.9996 3.42942 32.1584 3.65987 32.2779 3.90655C32.3975 4.15323 32.4611 4.41036 32.4689 4.67794L32.1956 26.6753C31.8748 26.4818 31.5367 26.3327 31.1814 26.228C30.826 26.1233 30.4534 26.0629 30.0635 26.0469L21.5053 25.9406L21.4787 28.0802L30.0369 28.1865C30.3378 28.1902 30.6157 28.2494 30.8706 28.364C31.1255 28.4787 31.3465 28.6319 31.5336 28.8237C31.7207 29.0155 31.8739 29.2458 31.9931 29.5148C32.1124 29.7838 32.1646 30.0631 32.1499 30.3527ZM0.217904 16.966L0.0596209 29.7031L9.62802 34.62L19.3157 29.9424L19.4739 17.2053L9.90553 12.2884L0.217904 16.966ZM9.87583 14.6787L16.0056 17.8309L9.79939 20.8299L3.66966 17.6776L9.87583 14.6787ZM17.1925 28.5953L10.7342 31.7082L10.8461 22.6986L17.3047 19.569L17.1925 28.5953ZM2.21559 28.4092L2.32776 19.3829L8.70655 22.672L8.59459 31.6816L2.21559 28.4092Z" fill="black"/>
</svg>
