<?xml version="1.0" standalone="no"?>
<!DOCTYPE svg PUBLIC "-//W3C//DTD SVG 20010904//EN"
 "http://www.w3.org/TR/2001/REC-SVG-20010904/DTD/svg10.dtd">
<svg version="1.0" xmlns="http://www.w3.org/2000/svg"
 width="512.000000pt" height="512.000000pt" viewBox="0 0 512.000000 512.000000"
 preserveAspectRatio="xMidYMid meet">

<g transform="translate(0.000000,512.000000) scale(0.100000,-0.100000)"
fill="#000000" stroke="none">
<path d="M2455 5106 c-90 -22 -146 -59 -313 -206 -90 -80 -177 -155 -193 -168
l-29 -24 -273 22 c-411 33 -470 29 -577 -33 -47 -27 -126 -103 -158 -152 -15
-23 -68 -171 -123 -345 -94 -299 -97 -305 -131 -325 -297 -172 -480 -287 -524
-331 -109 -107 -158 -271 -122 -412 6 -26 60 -165 119 -309 l107 -261 -104
-254 c-58 -139 -112 -278 -120 -308 -27 -103 -11 -222 43 -322 47 -87 122
-144 409 -315 l271 -162 63 -258 c34 -143 75 -286 91 -321 36 -79 123 -168
201 -206 103 -50 149 -53 506 -25 l320 24 174 -153 c95 -84 196 -168 223 -186
132 -89 302 -98 448 -25 35 18 131 94 249 197 l190 167 320 -24 c356 -27 397
-25 503 25 81 37 167 125 204 206 16 35 57 177 91 319 l61 257 272 163 c288
172 363 230 410 317 54 100 70 219 43 322 -8 30 -62 169 -120 308 l-104 254
109 266 c69 168 114 292 121 334 24 135 -25 283 -125 382 -36 35 -139 103
-327 215 -151 90 -276 165 -277 165 -1 1 -29 116 -63 256 -43 180 -71 276 -95
326 -61 126 -190 221 -329 242 -44 7 -140 3 -360 -14 -166 -13 -310 -23 -322
-24 -13 0 -88 60 -200 159 -114 102 -203 172 -244 194 -104 55 -207 69 -315
43z m173 -308 c23 -13 131 -103 241 -200 129 -114 211 -180 233 -186 22 -6
144 0 383 18 211 16 361 24 379 19 43 -12 74 -36 91 -69 8 -16 47 -160 85
-320 39 -160 78 -302 86 -316 9 -14 151 -105 323 -208 168 -101 316 -195 328
-208 26 -27 43 -69 43 -104 0 -14 -56 -161 -125 -328 -69 -167 -125 -317 -125
-335 0 -17 55 -162 122 -323 134 -322 145 -366 102 -425 -12 -17 -145 -103
-328 -213 -170 -102 -318 -197 -331 -212 -17 -20 -39 -94 -90 -305 -36 -153
-71 -292 -76 -310 -14 -43 -65 -91 -105 -99 -19 -3 -191 6 -384 21 -298 23
-355 25 -382 14 -17 -7 -128 -97 -245 -201 -233 -205 -260 -221 -333 -199 -29
8 -99 64 -251 198 -117 102 -228 192 -247 200 -32 13 -70 12 -384 -12 -192
-15 -363 -24 -381 -21 -36 7 -66 29 -90 66 -9 14 -48 158 -87 320 -39 163 -78
306 -88 320 -22 31 -71 63 -391 253 -148 89 -263 164 -275 180 -43 58 -32 102
102 425 67 161 122 306 122 323 0 18 -56 168 -125 335 -69 167 -125 315 -125
329 0 39 24 88 57 116 16 13 147 94 292 179 163 96 272 166 286 185 13 18 63
158 120 340 53 170 103 322 111 337 16 31 48 55 90 67 18 5 168 -3 379 -19
240 -18 361 -24 384 -18 18 5 72 43 120 86 47 42 140 124 206 183 66 58 134
113 150 122 42 23 84 21 133 -5z"/>
<path d="M2377 4199 c-374 -43 -722 -212 -987 -479 -239 -241 -392 -537 -457
-883 -23 -128 -23 -426 0 -554 131 -699 651 -1220 1350 -1350 115 -21 417 -24
527 -5 505 89 917 370 1174 802 97 163 178 392 207 585 19 123 17 394 -4 515
-85 497 -380 913 -829 1173 -274 158 -656 234 -981 196z m438 -314 c262 -55
482 -168 668 -345 201 -190 330 -417 395 -694 22 -97 26 -133 26 -286 0 -154
-4 -189 -27 -287 -81 -351 -282 -642 -575 -837 -151 -101 -299 -161 -493 -203
-102 -21 -370 -24 -471 -5 -288 54 -524 178 -729 381 -197 195 -317 420 -376
701 -24 118 -24 382 0 500 59 281 174 497 372 696 228 229 493 358 815 398 73
9 318 -3 395 -19z"/>
<path d="M3245 3144 c-16 -9 -211 -197 -432 -417 l-403 -402 -252 252 c-139
138 -267 258 -285 267 -122 61 -258 -75 -197 -197 22 -44 620 -644 666 -668
47 -24 89 -24 136 0 55 29 948 927 967 973 20 48 19 74 -4 125 -33 71 -126
103 -196 67z"/>
</g>
</svg>
