<?xml version="1.0" standalone="no"?>
<!DOCTYPE svg PUBLIC "-//W3C//DTD SVG 20010904//EN"
 "http://www.w3.org/TR/2001/REC-SVG-20010904/DTD/svg10.dtd">
<svg version="1.0" xmlns="http://www.w3.org/2000/svg"
 width="512.000000pt" height="512.000000pt" viewBox="0 0 512.000000 512.000000"
 preserveAspectRatio="xMidYMid meet">

<g transform="translate(0.000000,512.000000) scale(0.100000,-0.100000)"
fill="#000000" stroke="none">
<path d="M2395 5101 c-16 -10 -224 -214 -461 -452 -355 -357 -432 -440 -438
-468 -3 -18 -6 -102 -6 -186 l0 -153 -222 -5 c-250 -5 -312 -16 -439 -83 -125
-66 -255 -192 -309 -301 l-21 -43 -215 0 -214 0 -32 -29 c-30 -27 -33 -34 -36
-105 l-4 -76 216 0 216 0 0 -55 0 -55 104 0 103 0 7 60 c14 125 64 227 158
320 80 80 193 136 303 151 50 6 306 9 685 7 664 -3 641 -1 704 -64 65 -65 82
-153 45 -234 -27 -60 -45 -79 -104 -106 l-50 -24 -607 0 -608 0 0 -105 0 -105
160 0 160 0 0 -640 0 -640 -197 0 c-140 0 -214 4 -252 15 -206 54 -359 226
-393 438 l-13 77 -102 0 -103 0 0 -55 0 -55 -215 0 -215 0 0 -60 c0 -35 7 -74
15 -90 28 -55 53 -60 279 -60 l206 0 19 -37 c58 -114 184 -236 313 -303 128
-67 201 -81 446 -87 l212 -6 0 -481 c0 -264 5 -512 10 -551 14 -100 74 -217
150 -293 65 -66 122 -102 208 -135 l57 -22 1355 -3 c975 -2 1372 0 1415 8 203
38 382 215 424 418 7 36 11 304 11 827 l0 775 -105 0 -104 0 -3 -782 -3 -783
-26 -55 c-37 -80 -81 -125 -157 -162 l-67 -33 -1305 -3 c-1350 -3 -1392 -2
-1469 38 -51 26 -115 92 -143 148 l-23 47 -3 1273 -2 1272 352 0 c374 0 395 2
488 50 56 28 142 114 170 170 108 212 35 462 -168 575 -88 49 -138 55 -504 55
l-338 0 0 138 0 137 320 320 320 320 0 -185 c0 -291 -6 -300 -196 -300 l-124
0 0 -111 0 -112 138 6 c93 3 152 10 185 22 65 23 149 102 178 167 23 52 24 61
27 361 l3 308 1047 -3 1047 -3 55 -26 c80 -37 125 -81 162 -157 l33 -67 3
-782 3 -783 104 0 105 0 0 775 c0 523 -4 791 -11 827 -41 200 -217 376 -417
417 -37 8 -395 11 -1160 11 -1068 0 -1108 -1 -1137 -19z"/>
<path d="M3740 4579 c-307 -35 -584 -250 -695 -538 -45 -118 -57 -202 -52
-341 6 -145 22 -211 81 -335 104 -218 293 -379 531 -451 80 -24 106 -27 235
-27 129 0 155 3 235 27 171 52 318 149 426 284 65 80 138 223 164 317 25 90
31 293 11 384 -79 372 -372 638 -749 680 -53 6 -100 10 -104 10 -4 -1 -42 -5
-83 -10z m250 -225 c175 -41 340 -172 419 -334 54 -110 75 -209 68 -320 -15
-235 -141 -429 -348 -535 -94 -48 -177 -67 -289 -67 -344 0 -615 256 -637 602
-7 111 14 210 68 320 78 160 243 293 414 334 80 19 224 19 305 0z"/>
<path d="M3910 3845 l-175 -175 -70 70 -70 70 -75 -75 -75 -75 115 -115 c116
-116 147 -136 200 -127 16 3 107 86 250 228 l225 224 -75 75 -75 75 -175 -175z"/>
<path d="M4742 2869 c-23 -4 -64 -20 -91 -34 -33 -18 -278 -258 -812 -793
l-764 -767 -130 -262 -130 -263 -340 -2 -340 -3 0 -105 0 -105 382 -3 381 -2
314 156 313 156 768 766 c862 861 822 815 822 957 -1 88 -19 139 -75 207 -60
72 -197 117 -298 97z m132 -235 c13 -14 26 -35 28 -47 10 -51 -12 -82 -167
-237 l-155 -155 -72 73 -73 72 155 155 c155 155 186 177 237 167 12 -2 33 -15
47 -28z m-924 -1069 l-480 -480 -72 73 -73 72 480 480 480 480 72 -72 73 -73
-480 -480z m-663 -601 c-1 -1 -39 -20 -84 -43 l-83 -41 42 85 42 85 43 -42
c23 -23 42 -43 40 -44z"/>
<path d="M2134 2337 c-2 -8 -3 -56 -2 -108 l3 -94 745 0 745 0 0 105 0 105
-743 3 c-611 2 -743 0 -748 -11z"/>
<path d="M2130 1705 l0 -105 480 0 480 0 0 105 0 105 -480 0 -480 0 0 -105z"/>
<path d="M2130 1175 l0 -105 320 0 320 0 0 105 0 105 -320 0 -320 0 0 -105z"/>
<path d="M4050 1175 l0 -105 215 0 215 0 0 105 0 105 -215 0 -215 0 0 -105z"/>
<path d="M3520 640 l0 -110 480 0 480 0 0 110 0 110 -480 0 -480 0 0 -110z"/>
</g>
</svg>
