<?xml version="1.0" standalone="no"?>
<!DOCTYPE svg PUBLIC "-//W3C//DTD SVG 20010904//EN"
 "http://www.w3.org/TR/2001/REC-SVG-20010904/DTD/svg10.dtd">
<svg version="1.0" xmlns="http://www.w3.org/2000/svg"
 width="512.000000pt" height="512.000000pt" viewBox="0 0 512.000000 512.000000"
 preserveAspectRatio="xMidYMid meet">

<g transform="translate(0.000000,512.000000) scale(0.100000,-0.100000)"
fill="#000000" stroke="none">
<path d="M2315 5089 c-861 -89 -1615 -600 -2010 -1362 -138 -266 -221 -531
-267 -852 -20 -138 -16 -522 6 -670 23 -151 83 -391 131 -521 256 -693 814
-1250 1509 -1509 129 -48 369 -108 521 -131 148 -22 532 -26 670 -6 578 83
1071 323 1465 713 400 395 651 891 736 1454 26 168 26 542 0 710 -23 151 -83
391 -131 521 -55 148 -174 384 -260 514 -412 619 -1027 1011 -1765 1125 -126
19 -477 28 -605 14z m-664 -1284 c19 -9 231 -213 472 -453 l437 -437 438 437
c240 240 453 444 472 454 48 25 162 25 210 0 49 -25 98 -74 123 -121 28 -53
30 -164 3 -215 -10 -19 -214 -232 -454 -473 l-437 -437 435 -435 c481 -480
484 -483 477 -590 -4 -73 -26 -122 -81 -176 -74 -75 -169 -99 -254 -64 -25 11
-179 157 -485 463 l-447 447 -438 -437 c-240 -240 -453 -444 -472 -454 -42
-21 -139 -24 -194 -5 -49 17 -111 73 -139 125 -28 54 -30 165 -3 216 10 19
214 232 454 473 l437 437 -437 438 c-240 240 -444 453 -454 472 -25 48 -25
162 0 210 35 67 95 118 166 141 37 12 132 4 171 -16z"/>
</g>
</svg>
