<?xml version="1.0" standalone="no"?>
<!DOCTYPE svg PUBLIC "-//W3C//DTD SVG 20010904//EN"
 "http://www.w3.org/TR/2001/REC-SVG-20010904/DTD/svg10.dtd">
<svg version="1.0" xmlns="http://www.w3.org/2000/svg"
 width="512.000000pt" height="512.000000pt" viewBox="0 0 512.000000 512.000000"
 preserveAspectRatio="xMidYMid meet">

<g transform="translate(0.000000,512.000000) scale(0.100000,-0.100000)"
fill="#000000" stroke="none">
<path d="M369 5091 l-29 -29 0 -2502 0 -2502 29 -29 29 -29 1821 0 1820 0 28
24 28 24 5 539 5 538 335 960 c320 916 335 963 334 1030 0 58 -5 80 -29 124
-83 153 -258 196 -407 102 -26 -17 -58 -47 -73 -69 -14 -21 -56 -128 -94 -238
l-70 -199 -3 1118 -3 1119 -28 24 -28 24 -1820 0 -1821 0 -29 -29z m3559
-1446 l3 -1300 -82 -240 c-45 -132 -86 -244 -90 -249 -5 -6 -9 172 -9 407 l0
418 -25 24 -24 25 -1480 0 -1480 0 -28 -24 -28 -24 -3 -789 c-2 -592 1 -795
10 -817 24 -59 -44 -56 1428 -56 742 0 1350 -3 1350 -6 0 -3 -13 -44 -30 -91
-16 -46 -30 -98 -30 -113 0 -49 78 -401 95 -426 17 -26 53 -39 88 -30 12 3 90
62 172 131 82 69 153 125 157 125 5 0 7 -98 6 -217 l-3 -218 -1707 -3 -1708
-2 0 2390 0 2390 1708 -2 1707 -3 3 -1300z m628 -444 c20 -12 37 -34 44 -56
10 -32 9 -46 -10 -106 -12 -38 -26 -69 -30 -69 -15 0 -185 62 -194 70 -9 9 19
103 40 135 32 46 98 58 150 26z m-50 -406 c-2 -5 -154 -447 -339 -981 -185
-533 -341 -982 -346 -997 l-10 -26 -106 36 c-87 29 -105 38 -100 52 4 9 157
452 342 986 184 533 339 980 344 992 8 21 8 21 113 -15 59 -21 104 -41 102
-47z m-927 -857 l0 -623 -23 -60 -23 -60 -1339 0 -1339 0 -3 683 -2 682 1365
0 1365 0 -1 -622z m104 -1288 c5 -4 -6 -18 -23 -30 -17 -12 -33 -21 -35 -19
-2 2 -6 21 -10 41 l-7 38 33 -12 c19 -6 38 -14 42 -18z"/>
<path d="M680 4695 l0 -85 470 0 470 0 0 85 0 85 -470 0 -470 0 0 -85z"/>
<path d="M730 4427 c-44 -23 -50 -49 -50 -245 0 -190 8 -231 45 -246 9 -3 203
-6 431 -6 l415 0 24 25 c25 24 25 25 25 224 0 197 0 200 -24 228 l-24 28 -409
3 c-315 1 -414 -1 -433 -11z m720 -242 l0 -85 -300 0 -300 0 0 78 c0 43 3 82
7 85 3 4 138 7 300 7 l293 0 0 -85z"/>
<path d="M1840 4427 c-44 -22 -50 -49 -50 -245 0 -190 8 -231 45 -246 9 -3
434 -6 944 -6 l928 0 21 23 c21 22 22 32 22 224 0 111 -3 209 -6 218 -18 46
-7 45 -971 45 -708 0 -913 -3 -933 -13z m1740 -242 l0 -85 -810 0 -810 0 0 78
c0 43 3 82 7 85 3 4 368 7 810 7 l803 0 0 -85z"/>
<path d="M710 3730 c-29 -29 -32 -50 -28 -253 3 -179 4 -187 26 -209 l23 -23
420 0 421 0 24 28 c24 28 24 31 24 228 0 199 0 200 -25 224 l-24 25 -421 0
c-405 0 -421 -1 -440 -20z m740 -235 l0 -85 -297 2 -298 3 -3 83 -3 82 301 0
300 0 0 -85z"/>
<path d="M1820 3730 c-29 -29 -32 -50 -28 -253 3 -179 4 -187 26 -209 l23 -23
912 -3 c501 -1 922 0 935 3 12 3 31 14 42 25 19 19 20 34 20 228 0 205 0 209
-23 230 l-23 22 -932 0 c-915 0 -932 0 -952 -20z m1760 -235 l0 -85 -807 2
-808 3 -3 83 -3 82 811 0 810 0 0 -85z"/>
<path d="M680 2985 l0 -85 515 0 515 0 0 85 0 85 -515 0 -515 0 0 -85z"/>
<path d="M770 765 l0 -85 938 2 937 3 3 83 3 82 -941 0 -940 0 0 -85z"/>
</g>
</svg>
