<?xml version="1.0" standalone="no"?>
<!DOCTYPE svg PUBLIC "-//W3C//DTD SVG 20010904//EN"
 "http://www.w3.org/TR/2001/REC-SVG-20010904/DTD/svg10.dtd">
<svg version="1.0" xmlns="http://www.w3.org/2000/svg"
 width="512.000000pt" height="512.000000pt" viewBox="0 0 512.000000 512.000000"
 preserveAspectRatio="xMidYMid meet">

<g transform="translate(0.000000,512.000000) scale(0.100000,-0.100000)"
fill="#000000" stroke="none">
<path d="M1375 5113 c-87 -12 -210 -48 -285 -85 -65 -31 -102 -58 -156 -112
-112 -113 -158 -232 -158 -411 1 -150 45 -288 129 -397 19 -26 35 -49 35 -51
0 -3 -11 -8 -24 -11 -71 -18 -125 -103 -133 -210 -16 -204 82 -403 223 -456
30 -11 63 -20 74 -20 13 0 29 -23 59 -85 30 -62 60 -104 111 -157 l70 -73 -2
-89 -3 -89 -415 -94 c-331 -75 -429 -101 -487 -129 -121 -58 -206 -172 -233
-309 -8 -43 -10 -287 -8 -860 3 -793 3 -800 24 -846 31 -67 87 -124 152 -156
54 -27 65 -28 225 -31 l167 -4 0 -185 c0 -186 4 -214 39 -240 26 -20 70 -15
96 12 25 24 25 25 25 220 l0 195 328 0 327 0 130 -47 c72 -25 134 -50 138 -54
5 -4 -10 -63 -32 -132 -44 -136 -44 -160 1 -191 20 -14 105 -16 823 -16 780 0
802 1 822 19 15 14 123 325 357 1028 185 554 336 1020 336 1034 0 14 -10 35
-23 47 -23 22 -26 22 -445 22 l-422 0 0 53 c0 149 -46 273 -134 360 -90 90
-113 98 -583 206 l-428 97 -3 99 -3 98 39 41 c57 60 86 103 126 184 30 60 40
72 61 72 85 0 198 84 248 186 53 105 73 272 46 365 -15 48 -61 104 -104 127
l-34 17 43 65 c164 248 168 613 10 876 -71 118 -109 132 -185 68 -94 -78 -112
-79 -308 -14 -174 57 -262 70 -460 69 -91 -1 -179 -4 -196 -6z m383 -169 c58
-8 151 -31 206 -49 220 -74 268 -77 375 -29 63 29 59 32 96 -81 53 -159 44
-360 -24 -510 -30 -65 -130 -183 -131 -153 -1 43 -54 149 -91 183 -56 50 -95
48 -184 -10 -85 -56 -147 -75 -246 -75 -68 0 -82 -3 -105 -24 -21 -18 -28 -32
-28 -61 0 -29 7 -43 28 -61 24 -21 37 -24 109 -24 102 0 182 20 266 66 45 25
66 32 71 24 4 -7 15 -44 24 -84 14 -60 17 -116 14 -351 l-3 -280 -32 -68 c-86
-181 -285 -289 -476 -258 -189 31 -342 180 -376 365 -6 33 -11 153 -11 266 l0
206 31 30 c17 16 51 60 76 97 34 51 49 67 62 62 74 -30 141 -2 141 60 0 54 -9
64 -91 106 -124 62 -143 57 -201 -53 -24 -44 -57 -97 -75 -117 l-31 -36 -42
40 c-197 190 -224 517 -55 678 133 128 414 184 703 141z m-688 -1229 c0 -110
-4 -175 -10 -175 -19 0 -52 42 -78 99 -19 41 -27 78 -30 138 -5 101 2 113 69
113 l49 0 0 -175z m1370 160 c9 -10 11 -42 8 -103 -3 -71 -10 -100 -32 -146
-25 -51 -71 -96 -98 -96 -10 0 -11 344 -1 353 13 14 110 7 123 -8z m-530
-1091 c-62 -145 -313 -155 -401 -16 -25 40 -29 56 -29 119 0 40 2 73 5 73 2 0
30 -7 62 -15 76 -20 231 -18 308 3 l60 17 6 -70 c5 -55 3 -79 -11 -111z m-530
-268 c21 -101 44 -194 50 -206 23 -43 91 -48 125 -10 21 23 21 63 1 159 -9 41
-15 75 -14 77 2 1 28 -4 58 -12 69 -18 141 -18 210 0 30 8 55 14 56 13 1 -1
-35 -177 -80 -390 -50 -240 -83 -382 -88 -370 -4 10 -23 99 -43 197 -20 98
-40 187 -45 196 -16 30 -64 44 -97 28 -56 -27 -57 -45 -13 -262 22 -107 40
-201 40 -207 0 -14 -331 449 -337 471 -2 9 12 57 31 109 20 51 36 99 36 108 0
8 -14 28 -30 45 l-30 30 -101 -8 -101 -7 7 23 c4 12 20 50 37 85 l29 64 97 21
c53 12 111 25 127 29 17 5 32 7 33 5 2 -1 21 -86 42 -188z m851 154 l97 -21
32 -72 c18 -40 35 -78 38 -86 4 -12 -10 -13 -90 -7 -109 8 -140 -1 -158 -45
-11 -25 -8 -42 25 -133 l37 -104 -172 -242 c-95 -132 -174 -239 -176 -238 -2
3 192 948 201 975 3 8 14 9 37 3 18 -5 76 -18 129 -30z m-1351 -75 c0 -2 -18
-44 -40 -91 -45 -99 -50 -144 -19 -175 21 -21 28 -22 135 -16 l113 6 -19 -50
c-37 -92 -45 -75 262 -507 154 -219 297 -416 315 -439 39 -49 70 -61 107 -41
39 20 646 872 646 906 0 15 -9 51 -20 79 l-20 53 110 -7 c106 -6 111 -5 135
17 35 33 32 65 -16 171 -22 50 -39 93 -36 95 9 9 355 -75 395 -95 93 -47 146
-145 147 -270 l0 -76 -306 -3 c-302 -2 -306 -3 -326 -25 -22 -24 -83 -197 -83
-235 0 -32 43 -72 77 -72 47 0 70 25 94 100 l23 70 694 0 c656 0 693 -1 688
-17 -3 -10 -140 -421 -304 -913 l-299 -895 -691 -3 c-381 -1 -692 2 -692 6 0
13 42 136 49 144 3 3 105 23 226 44 l220 38 179 175 c111 110 185 191 197 216
45 96 5 206 -93 256 -33 17 -61 19 -258 19 -121 0 -220 3 -220 7 0 4 42 133
92 286 89 265 92 279 78 305 -23 39 -64 57 -100 42 -34 -14 -45 -37 -95 -190
-21 -63 -42 -120 -49 -126 -6 -6 -55 -18 -110 -27 -115 -19 -116 -20 -207
-147 l-64 -89 -432 -1 -433 0 0 252 c0 245 -1 252 -22 275 -27 29 -77 30 -109
4 l-24 -19 -3 -306 -3 -307 30 -29 29 -30 506 0 c283 0 515 4 529 9 13 5 58
56 101 115 66 91 81 106 112 112 19 3 37 5 39 2 2 -2 -11 -51 -30 -108 -29
-92 -32 -108 -21 -135 21 -52 37 -55 327 -55 282 0 299 -3 285 -47 -3 -10 -71
-83 -150 -162 l-145 -145 -218 -38 -218 -38 -147 52 -147 52 -3 139 c-3 132
-4 140 -27 158 -31 25 -79 24 -108 -3 -22 -20 -23 -29 -23 -145 l0 -123 -521
0 c-517 0 -522 0 -560 22 -25 14 -46 37 -59 63 -20 42 -20 57 -18 841 3 790 3
799 24 845 26 55 77 109 127 133 20 9 110 34 199 55 163 39 198 45 198 36z"/>
<path d="M3052 5087 l-22 -23 0 -588 0 -587 25 -24 c21 -22 33 -25 90 -25 36
0 65 -3 65 -6 0 -3 -40 -97 -90 -210 -49 -112 -90 -216 -90 -232 0 -37 37 -72
76 -72 21 0 143 73 439 260 l409 260 469 0 469 0 29 29 29 30 -2 586 -3 587
-24 19 c-22 18 -52 19 -935 19 l-913 0 -21 -23z m1738 -612 l0 -475 -442 0
-441 0 -286 -182 c-157 -99 -297 -188 -309 -196 l-24 -15 15 34 c8 19 38 87
66 151 28 64 51 126 51 138 0 11 -11 32 -25 45 -22 23 -32 25 -115 25 l-90 0
0 475 0 475 800 0 800 0 0 -475z"/>
<path d="M3455 4698 c-51 -27 -61 -89 -22 -126 22 -20 34 -22 156 -22 127 0
133 1 156 25 33 33 32 70 -4 106 -29 29 -30 29 -148 29 -66 0 -127 -5 -138
-12z"/>
<path d="M3955 4698 c-51 -27 -61 -89 -22 -126 23 -22 29 -22 323 -22 l301 0
21 23 c22 23 28 60 16 92 -16 40 -50 45 -341 45 -182 -1 -285 -4 -298 -12z"/>
<path d="M3432 4317 c-22 -23 -28 -60 -16 -92 16 -40 51 -45 338 -45 166 0
286 4 302 10 55 21 70 77 33 124 l-20 26 -308 0 -308 0 -21 -23z"/>
<path d="M4291 4323 c-34 -29 -37 -74 -8 -109 24 -28 29 -29 127 -32 55 -2
112 -1 126 2 63 16 86 92 41 134 -21 20 -34 22 -144 22 -100 0 -124 -3 -142
-17z"/>
</g>
</svg>
