<?xml version="1.0" standalone="no"?>
<!DOCTYPE svg PUBLIC "-//W3C//DTD SVG 20010904//EN"
 "http://www.w3.org/TR/2001/REC-SVG-20010904/DTD/svg10.dtd">
<svg version="1.0" xmlns="http://www.w3.org/2000/svg"
 width="512.000000pt" height="512.000000pt" viewBox="0 0 512.000000 512.000000"
 preserveAspectRatio="xMidYMid meet">

<g transform="translate(0.000000,512.000000) scale(0.100000,-0.100000)"
fill="#000000" stroke="none">
<path d="M720 4947 c-49 -16 -133 -102 -148 -153 -9 -31 -12 -297 -12 -1097
l0 -1055 -55 -7 c-75 -9 -183 -65 -235 -121 -23 -25 -56 -75 -73 -112 l-32
-67 -3 -210 c-3 -199 1 -255 78 -1049 44 -461 80 -845 80 -853 0 -8 11 -25 25
-38 l24 -25 906 0 c531 0 913 4 923 9 9 5 89 113 177 240 l160 230 109 0 c60
1 127 6 150 13 55 16 138 99 154 154 9 31 12 289 12 1058 l0 1016 616 0 c455
0 627 3 658 12 55 16 138 99 154 154 17 59 17 1049 0 1108 -16 55 -99 138
-154 154 -31 9 -203 12 -658 12 l-616 0 0 216 c0 141 -4 231 -12 258 -16 55
-99 138 -154 154 -56 16 -2021 15 -2074 -1z m2055 -172 c25 -24 25 -24 25
-240 l0 -215 -616 0 c-455 0 -627 -3 -658 -12 -55 -16 -138 -99 -154 -154 -17
-59 -17 -1049 0 -1108 16 -55 99 -138 154 -154 31 -9 203 -12 658 -12 l616 0
0 -1015 0 -1016 -25 -24 -24 -25 -991 0 -991 0 -24 25 -25 24 0 495 0 494 248
4 247 3 67 32 c93 44 151 100 196 191 35 72 37 81 37 171 0 87 -3 102 -32 163
-44 93 -100 151 -191 196 l-76 37 -248 3 -248 4 0 1054 0 1055 25 24 24 25
991 0 991 0 24 -25z m1440 -640 l25 -24 0 -511 0 -511 -25 -24 -24 -25 -1311
0 -1311 0 -24 25 -25 24 0 511 0 511 25 24 24 25 1311 0 1311 0 24 -25z
m-3021 -1667 c86 -26 166 -136 166 -228 0 -92 -80 -202 -166 -228 -28 -8 -129
-12 -313 -12 l-272 0 -24 -25 -25 -24 0 -552 c0 -394 3 -563 12 -591 15 -49
76 -120 125 -144 36 -18 81 -19 840 -24 l801 -5 -110 -157 -110 -158 -824 0
c-747 0 -824 1 -824 16 0 9 -34 368 -75 799 -61 638 -75 815 -75 960 0 110 5
193 12 219 15 51 99 137 148 153 51 16 660 17 714 1z"/>
<path d="M1705 3975 c-25 -24 -25 -26 -25 -215 0 -189 0 -191 25 -215 23 -24
29 -25 160 -25 l135 0 0 -80 0 -80 -160 0 -160 0 0 -80 0 -80 215 0 c286 0
265 -19 265 240 0 189 0 191 -25 215 -23 24 -29 25 -160 25 l-135 0 0 80 0 80
160 0 160 0 0 80 0 80 -215 0 c-216 0 -216 0 -240 -25z"/>
<path d="M2345 3975 l-25 -24 0 -376 0 -375 80 0 80 0 0 160 0 160 80 0 80 0
0 -160 0 -160 80 0 80 0 0 375 0 376 -25 24 c-24 25 -26 25 -215 25 -189 0
-191 0 -215 -25z m295 -215 l0 -80 -80 0 -80 0 0 80 0 80 80 0 80 0 0 -80z"/>
<path d="M2960 3625 l0 -376 25 -24 c24 -25 24 -25 240 -25 l215 0 0 80 0 80
-160 0 -160 0 0 320 0 320 -80 0 -80 0 0 -375z"/>
<path d="M3625 3975 l-25 -24 0 -351 0 -351 25 -24 c24 -25 24 -25 240 -25
l215 0 0 80 0 80 -160 0 -160 0 0 80 0 80 160 0 160 0 0 80 0 80 -160 0 -160
0 0 80 0 80 160 0 160 0 0 80 0 80 -215 0 c-216 0 -216 0 -240 -25z"/>
<path d="M3305 2535 c-14 -13 -25 -32 -25 -42 0 -20 108 -786 115 -821 8 -35
41 -62 77 -62 26 0 44 12 95 62 39 39 66 59 72 53 5 -6 116 -161 246 -345 131
-184 249 -347 263 -362 19 -21 35 -28 61 -28 33 0 55 20 338 303 283 283 303
305 303 338 0 26 -7 42 -27 61 -16 14 -179 132 -363 263 -184 131 -339 242
-345 247 -5 5 15 33 53 71 50 51 62 69 62 95 0 36 -27 69 -62 77 -33 7 -799
115 -821 115 -10 0 -29 -11 -42 -25z m401 -185 c115 -16 224 -32 242 -35 l33
-6 -40 -44 c-77 -84 -83 -77 339 -379 l368 -263 -215 -216 -216 -215 -263 368
c-302 422 -295 416 -379 339 l-44 -40 -6 33 c-12 70 -65 451 -65 469 0 25 -2
25 246 -11z"/>
</g>
</svg>
