<?xml version="1.0" standalone="no"?>
<!DOCTYPE svg PUBLIC "-//W3C//DTD SVG 20010904//EN"
 "http://www.w3.org/TR/2001/REC-SVG-20010904/DTD/svg10.dtd">
<svg version="1.0" xmlns="http://www.w3.org/2000/svg"
 width="512.000000pt" height="512.000000pt" viewBox="0 0 512.000000 512.000000"
 preserveAspectRatio="xMidYMid meet">

<g transform="translate(0.000000,512.000000) scale(0.100000,-0.100000)"
fill="#000000" stroke="none">
<path d="M1080 5109 c-165 -21 -329 -152 -398 -316 -37 -86 -42 -169 -42 -680
l0 -492 -37 -6 c-251 -40 -428 -166 -534 -380 -70 -141 -71 -157 -67 -795 4
-536 5 -571 27 -690 63 -344 193 -645 394 -913 l70 -92 18 -150 c19 -152 71
-459 90 -527 13 -49 53 -72 97 -57 34 12 45 32 62 112 l11 56 41 -39 c47 -45
150 -101 223 -121 42 -12 342 -14 1850 -14 1718 0 1803 1 1860 18 179 55 318
201 360 378 13 56 15 271 15 1659 0 1778 4 1666 -71 1820 -41 84 -46 90 -563
606 -495 496 -525 523 -596 558 -156 76 -39 70 -1465 72 -704 1 -1309 -2
-1345 -7z m2480 -150 c64 -14 127 -61 160 -119 25 -45 25 -48 31 -355 5 -281
8 -316 27 -376 28 -84 85 -172 148 -228 99 -88 292 -154 352 -120 37 20 51 63
31 97 -16 29 -32 36 -121 52 -111 21 -213 110 -262 228 -18 42 -21 81 -26 367
-4 215 -10 329 -18 348 l-12 28 27 -20 c39 -28 988 -980 982 -985 -2 -2 -29 2
-59 10 -33 8 -104 14 -178 14 -117 0 -124 -1 -147 -25 -30 -29 -32 -64 -6 -96
18 -23 27 -24 163 -29 134 -5 146 -7 190 -33 53 -31 94 -79 114 -134 11 -31
13 -317 14 -1574 0 -1704 4 -1591 -67 -1696 -57 -85 -136 -134 -244 -153 -45
-8 -583 -10 -1819 -8 l-1755 3 -57 23 c-74 30 -160 108 -193 176 l-26 52 15
100 c8 54 18 131 22 169 6 64 11 75 54 130 63 79 157 224 199 306 32 60 34 69
22 97 -16 38 -62 59 -95 44 -13 -6 -44 -47 -71 -94 -26 -46 -53 -90 -59 -99
-8 -12 -11 99 -11 420 0 443 -6 550 -46 876 -19 161 -71 474 -91 553 -18 71
-97 94 -132 39 -29 -44 -92 -424 -125 -747 -37 -361 -49 -883 -25 -1115 l5
-50 -20 25 c-12 14 -52 86 -89 160 -108 215 -175 441 -201 682 -14 120 -15
1066 -2 1134 15 80 48 155 93 215 198 262 559 290 788 62 68 -69 96 -113 133
-213 20 -52 21 -77 25 -535 4 -617 -8 -776 -83 -1024 -21 -71 -23 -88 -12
-110 18 -38 60 -56 94 -39 36 17 46 40 82 180 63 243 66 286 66 908 0 631 1
618 -73 770 -51 105 -186 241 -292 292 -41 21 -100 44 -130 51 l-55 14 0 534
0 534 23 57 c46 114 161 208 279 228 77 12 2402 12 2463 -1z m-2861 -2694 c11
-99 26 -260 32 -359 15 -228 6 -837 -15 -1036 -21 -205 -39 -341 -43 -336 -2
2 -10 57 -18 122 -65 523 -65 1180 1 1678 8 61 14 112 14 115 0 2 2 2 5 0 2
-3 13 -86 24 -184z"/>
<path d="M1226 4468 c-54 -15 -132 -94 -142 -142 -10 -54 1 -124 23 -155 29
-39 72 -64 175 -106 137 -54 164 -87 112 -136 -48 -45 -149 -28 -227 37 -36
30 -59 30 -93 1 -20 -17 -27 -33 -27 -57 0 -63 118 -139 241 -156 146 -19 297
107 279 235 -13 101 -63 148 -229 216 -89 37 -103 46 -106 68 -7 61 82 75 173
27 31 -16 66 -30 76 -30 28 0 69 44 69 73 0 87 -194 162 -324 125z"/>
<path d="M1625 4455 c-14 -13 -25 -36 -25 -50 0 -14 11 -37 25 -50 20 -21 34
-25 80 -25 l55 0 0 -265 0 -266 25 -24 c27 -28 42 -30 78 -14 43 20 47 45 47
314 l0 255 54 0 c70 0 100 22 100 75 0 27 -6 43 -23 56 -21 17 -42 19 -208 19
-182 0 -184 0 -208 -25z"/>
<path d="M2235 4458 c-26 -23 -44 -68 -197 -472 -52 -139 -58 -162 -48 -186
11 -27 46 -50 75 -50 24 0 62 43 79 93 l18 47 125 0 c118 0 125 -1 130 -21 3
-11 15 -39 27 -62 25 -51 59 -66 102 -46 60 29 58 40 -67 371 -68 181 -123
312 -136 326 -13 13 -34 22 -52 22 -17 0 -41 -10 -56 -22z m84 -328 c17 -43
31 -82 31 -85 0 -7 -115 -7 -122 0 -5 5 52 165 58 165 1 0 16 -36 33 -80z"/>
<path d="M2547 4468 c-27 -21 -36 -60 -22 -94 15 -37 31 -44 96 -44 l49 0 0
-255 c0 -269 4 -294 47 -314 34 -16 47 -14 77 10 l26 20 0 270 0 269 54 0 c39
0 60 6 80 21 34 27 36 77 3 107 -22 21 -32 22 -208 22 -133 0 -190 -4 -202
-12z"/>
<path d="M3047 4452 c-15 -17 -17 -55 -17 -340 l0 -321 26 -20 c24 -19 40 -21
160 -21 78 0 143 5 158 11 51 23 55 103 7 128 -11 6 -60 11 -110 11 l-91 0 0
70 0 70 85 0 c78 0 88 2 110 25 14 13 25 36 25 50 0 14 -11 37 -25 50 -22 23
-32 25 -110 25 l-85 0 0 64 0 64 96 4 c91 4 98 6 120 32 29 33 30 55 3 90
l-20 26 -158 0 c-140 0 -160 -2 -174 -18z"/>
<path d="M2608 3539 c-10 -5 -23 -19 -29 -31 -6 -11 -35 -152 -64 -312 -40
-223 -50 -297 -43 -319 18 -50 70 -62 113 -24 23 19 29 40 52 175 15 84 30
149 34 145 4 -5 26 -73 49 -153 48 -164 64 -190 121 -190 63 0 76 20 125 190
24 85 46 160 47 165 2 6 16 -55 31 -135 30 -163 41 -197 67 -210 46 -25 109
10 109 61 0 17 -25 159 -55 317 -50 261 -57 289 -80 310 -33 28 -88 29 -114 3
-21 -21 -36 -66 -92 -263 -18 -65 -35 -115 -38 -112 -3 3 -29 85 -58 182 -37
126 -59 182 -74 195 -23 19 -74 22 -101 6z"/>
<path d="M3323 3526 l-28 -24 0 -315 c0 -296 1 -316 19 -336 18 -20 29 -21
176 -21 145 0 158 2 175 20 25 28 23 76 -4 103 -19 19 -35 22 -121 25 l-100 4
0 64 0 64 80 0 c89 0 123 11 139 47 15 33 14 47 -8 74 -17 21 -30 25 -113 29
l-93 5 0 65 0 65 85 3 c115 3 129 7 144 44 17 39 11 63 -22 88 -22 18 -40 20
-163 20 -131 0 -139 -1 -166 -24z"/>
<path d="M3762 3527 c-22 -23 -22 -29 -22 -338 0 -303 1 -316 20 -337 27 -29
80 -29 106 -1 17 19 20 42 24 200 l5 179 124 -181 c138 -200 160 -224 206
-215 65 13 65 15 65 356 0 296 -1 308 -21 334 -27 34 -77 36 -107 3 -20 -21
-22 -34 -24 -202 l-3 -180 -124 180 c-68 99 -133 190 -144 203 -27 30 -77 29
-105 -1z"/>
<path d="M4341 3524 c-50 -64 -5 -124 94 -124 l45 0 0 -263 c0 -251 1 -264 20
-285 30 -32 82 -30 109 4 20 25 21 39 21 285 l0 259 45 0 c99 0 144 60 94 124
l-20 26 -194 0 -194 0 -20 -26z"/>
<path d="M1877 2439 c-47 -28 -40 -107 11 -128 19 -8 375 -11 1240 -9 l1214 3
19 24 c25 30 24 62 -2 95 l-20 26 -1222 0 c-835 -1 -1228 -4 -1240 -11z"/>
<path d="M1408 1950 c-24 -25 -29 -36 -23 -58 3 -15 14 -35 22 -44 15 -17 98
-18 1473 -18 l1457 0 21 23 c27 29 28 67 3 98 l-19 24 -1452 3 -1451 2 -31
-30z"/>
<path d="M1417 1489 c-46 -27 -41 -105 9 -128 18 -8 416 -11 1465 -11 l1440 0
24 25 c32 31 32 69 0 100 l-24 25 -1448 0 c-993 -1 -1454 -4 -1466 -11z"/>
<path d="M1433 1020 c-51 -21 -63 -79 -25 -122 14 -17 64 -18 774 -18 745 0
758 0 778 20 25 25 26 71 1 101 l-19 24 -744 2 c-420 1 -753 -2 -765 -7z"/>
</g>
</svg>
