<?xml version="1.0" standalone="no"?>
<!DOCTYPE svg PUBLIC "-//W3C//DTD SVG 20010904//EN"
 "http://www.w3.org/TR/2001/REC-SVG-20010904/DTD/svg10.dtd">
<svg version="1.0" xmlns="http://www.w3.org/2000/svg"
 width="512.000000pt" height="512.000000pt" viewBox="0 0 512.000000 512.000000"
 preserveAspectRatio="xMidYMid meet">

<g transform="translate(0.000000,512.000000) scale(0.100000,-0.100000)"
fill="#000000" stroke="none">
<path d="M1155 4941 c-16 -10 -247 -237 -512 -503 l-483 -484 0 -1631 0 -1632
24 -28 24 -28 1504 -5 1504 -5 94 -108 c52 -60 115 -131 138 -158 l44 -49
-321 0 c-308 0 -322 -1 -341 -20 -30 -30 -30 -83 1 -115 19 -20 35 -20 850
-23 l830 -2 31 30 c25 26 29 36 24 63 -13 67 -13 67 -368 67 l-320 0 38 44
c345 395 493 594 594 797 26 53 69 101 243 277 l212 212 3 1623 c1 1145 -1
1630 -9 1648 -5 15 -22 31 -35 38 -18 8 -523 11 -1882 11 -1803 0 -1858 -1
-1887 -19z m900 -541 l-400 -400 -610 0 -610 0 400 400 400 400 610 0 610 0
-400 -400z m800 0 l-400 -400 -290 0 -290 0 400 400 400 400 290 0 290 0 -400
-400z m1440 0 l-400 -400 -610 0 -610 0 400 400 400 400 610 0 610 0 -400
-400z m436 -2764 l-78 -78 -8 98 c-22 298 -157 549 -380 709 -61 44 -218 125
-242 125 -11 0 -13 131 -13 697 l0 698 398 398 397 397 3 -1482 2 -1483 -79
-79z m-3129 1743 l3 -461 24 -19 c50 -40 73 -30 261 122 96 77 180 143 187
146 6 2 93 -61 193 -141 199 -159 223 -171 268 -123 22 23 22 27 24 478 l3
454 640 0 640 0 3 -649 2 -649 -89 7 c-169 13 -354 -22 -509 -94 -246 -115
-423 -328 -493 -589 -26 -98 -38 -246 -28 -335 18 -162 106 -364 256 -590 51
-76 93 -140 93 -142 0 -2 -621 -4 -1380 -4 l-1380 0 0 1525 0 1525 640 0 639
0 3 -461z m798 105 l0 -356 -42 34 c-257 207 -268 213 -316 182 -15 -9 -82
-62 -149 -116 -67 -54 -124 -98 -128 -98 -3 0 -5 160 -5 355 l0 355 320 0 320
0 0 -356z m1500 -1125 c157 -39 313 -137 413 -259 127 -155 196 -394 167 -576
-39 -246 -317 -675 -695 -1072 l-98 -103 -54 53 c-233 227 -536 626 -646 848
-85 174 -109 280 -96 426 28 326 233 579 546 674 142 43 314 46 463 9z"/>
<path d="M703 2073 c-13 -2 -32 -16 -43 -30 -19 -25 -20 -39 -20 -449 l0 -423
24 -28 24 -28 644 -3 c353 -2 658 0 676 3 18 3 42 15 53 26 18 18 19 36 19
450 0 261 -4 437 -10 449 -21 38 -52 40 -709 39 -350 -1 -646 -4 -658 -6z
m1217 -483 l0 -320 -557 2 -558 3 -3 318 -2 317 560 0 560 0 0 -320z"/>
<path d="M3625 2068 c-114 -13 -207 -61 -287 -146 -89 -95 -128 -194 -128
-327 0 -142 46 -250 147 -347 82 -78 156 -113 268 -128 372 -47 651 333 496
675 -33 73 -122 173 -186 211 -90 52 -202 75 -310 62z m213 -193 c151 -82 209
-265 133 -419 -17 -35 -48 -79 -68 -97 -125 -109 -311 -110 -434 -1 -115 100
-133 301 -39 429 64 87 148 125 270 120 71 -2 94 -8 138 -32z"/>
</g>
</svg>
