<?xml version="1.0" standalone="no"?>
<!DOCTYPE svg PUBLIC "-//W3C//DTD SVG 20010904//EN"
 "http://www.w3.org/TR/2001/REC-SVG-20010904/DTD/svg10.dtd">
<svg version="1.0" xmlns="http://www.w3.org/2000/svg"
 width="512.000000pt" height="512.000000pt" viewBox="0 0 512.000000 512.000000"
 preserveAspectRatio="xMidYMid meet">

<g transform="translate(0.000000,512.000000) scale(0.100000,-0.100000)"
fill="#000000" stroke="none">
<path d="M2285 4675 c-812 -107 -1496 -673 -1750 -1450 -94 -285 -127 -604
-94 -903 107 -975 880 -1755 1859 -1878 133 -16 366 -18 495 -4 725 81 1354
525 1680 1185 245 497 284 1083 105 1617 -182 544 -591 1002 -1118 1250 -197
93 -445 163 -667 188 -122 13 -387 11 -510 -5z m352 -850 c44 -19 86 -57 451
-419 156 -155 292 -298 303 -318 27 -53 25 -133 -4 -189 -34 -64 -93 -102
-166 -107 -99 -7 -120 5 -287 169 -83 82 -153 149 -157 149 -4 0 -7 -375 -7
-832 0 -789 -1 -835 -19 -873 -76 -164 -298 -166 -382 -3 -18 36 -19 70 -19
875 l0 838 -152 -152 c-84 -83 -169 -159 -188 -169 -86 -43 -205 -10 -264 74
-40 57 -48 149 -18 208 28 53 706 729 752 748 46 20 111 20 157 1z"/>
</g>
</svg>
